%TF.GenerationSoftware,KiCad,Pcbnew,7.0.10*%
%TF.CreationDate,2024-11-03T00:15:00-07:00*%
%TF.ProjectId,winston-pomodoro-timer,77696e73-746f-46e2-9d70-6f6d6f646f72,rev?*%
%TF.SameCoordinates,Original*%
%TF.FileFunction,Copper,L2,Bot*%
%TF.FilePolarity,Positive*%
%FSLAX46Y46*%
G04 Gerber Fmt 4.6, Leading zero omitted, Abs format (unit mm)*
G04 Created by KiCad (PCBNEW 7.0.10) date 2024-11-03 00:15:00*
%MOMM*%
%LPD*%
G01*
G04 APERTURE LIST*
%TA.AperFunction,ComponentPad*%
%ADD10C,0.300000*%
%TD*%
%TA.AperFunction,ComponentPad*%
%ADD11R,1.700000X1.700000*%
%TD*%
%TA.AperFunction,ComponentPad*%
%ADD12O,1.700000X1.700000*%
%TD*%
%TA.AperFunction,ComponentPad*%
%ADD13O,2.200000X3.500000*%
%TD*%
%TA.AperFunction,ComponentPad*%
%ADD14R,1.500000X2.500000*%
%TD*%
%TA.AperFunction,ComponentPad*%
%ADD15O,1.500000X2.500000*%
%TD*%
%TA.AperFunction,ComponentPad*%
%ADD16R,1.350000X1.350000*%
%TD*%
%TA.AperFunction,ComponentPad*%
%ADD17O,1.350000X1.350000*%
%TD*%
%TA.AperFunction,ComponentPad*%
%ADD18O,1.000000X2.000000*%
%TD*%
%TA.AperFunction,ViaPad*%
%ADD19C,0.800000*%
%TD*%
%TA.AperFunction,Conductor*%
%ADD20C,0.508000*%
%TD*%
%TA.AperFunction,Conductor*%
%ADD21C,0.381000*%
%TD*%
%TA.AperFunction,Conductor*%
%ADD22C,0.250000*%
%TD*%
%TA.AperFunction,Conductor*%
%ADD23C,0.254000*%
%TD*%
G04 APERTURE END LIST*
D10*
%TO.P,U3,18*%
%TO.N,GND*%
X170550000Y-70199998D03*
%TO.P,U3,19*%
X169450000Y-70199998D03*
%TO.P,U3,20*%
X168350000Y-70199998D03*
%TO.P,U3,21*%
X170550000Y-69099998D03*
%TO.P,U3,22*%
X169450000Y-69099998D03*
%TO.P,U3,23*%
X168350000Y-69099998D03*
%TO.P,U3,24*%
X170550000Y-67999998D03*
%TO.P,U3,25*%
X169450000Y-67999998D03*
%TO.P,U3,26*%
X168350000Y-67999998D03*
%TD*%
D11*
%TO.P,J1,1,Pin_1*%
%TO.N,+5V*%
X225840000Y-75000000D03*
D12*
%TO.P,J1,2,Pin_2*%
%TO.N,GND*%
X228380000Y-75000000D03*
%TO.P,J1,3,Pin_3*%
%TO.N,/DAT*%
X230920000Y-75000000D03*
%TO.P,J1,4,Pin_4*%
%TO.N,/CLK*%
X233460000Y-75000000D03*
%TO.P,J1,5,Pin_5*%
%TO.N,/SWT*%
X236000000Y-75000000D03*
%TD*%
D13*
%TO.P,SW2,*%
%TO.N,*%
X134150000Y-68650000D03*
X142350000Y-68650000D03*
D14*
%TO.P,SW2,1,A*%
%TO.N,/BAT_V_OUT*%
X136250000Y-68650000D03*
D15*
%TO.P,SW2,2,B*%
%TO.N,/Boost_EN*%
X138250000Y-68650000D03*
%TO.P,SW2,3,C*%
%TO.N,GND*%
X140250000Y-68650000D03*
%TD*%
D16*
%TO.P,J3,1,Pin_1*%
%TO.N,/+V_BAT*%
X130900000Y-81450000D03*
D17*
%TO.P,J3,2,Pin_2*%
%TO.N,GND*%
X130900000Y-79450000D03*
%TD*%
D11*
%TO.P,ICSP1,1,Pin_1*%
%TO.N,/MISO*%
X227860000Y-67340000D03*
D12*
%TO.P,ICSP1,2,Pin_2*%
%TO.N,+5V*%
X227860000Y-64800000D03*
%TO.P,ICSP1,3,Pin_3*%
%TO.N,/SCK*%
X230400000Y-67340000D03*
%TO.P,ICSP1,4,Pin_4*%
%TO.N,/MOSI*%
X230400000Y-64800000D03*
%TO.P,ICSP1,5,Pin_5*%
%TO.N,/RST*%
X232940000Y-67340000D03*
%TO.P,ICSP1,6,Pin_6*%
%TO.N,GND*%
X232940000Y-64800000D03*
%TD*%
D11*
%TO.P,J5,1,Pin_1*%
%TO.N,/A0*%
X204980000Y-78000000D03*
D12*
%TO.P,J5,2,Pin_2*%
%TO.N,/A1*%
X207520000Y-78000000D03*
%TO.P,J5,3,Pin_3*%
%TO.N,/A2*%
X210060000Y-78000000D03*
%TO.P,J5,4,Pin_4*%
%TO.N,/A3*%
X212600000Y-78000000D03*
%TO.P,J5,5,Pin_5*%
%TO.N,/A6*%
X215140000Y-78000000D03*
%TO.P,J5,6,Pin_6*%
%TO.N,/A7*%
X217680000Y-78000000D03*
%TD*%
D11*
%TO.P,J2,1,Pin_1*%
%TO.N,/D3*%
X207425000Y-82900000D03*
D12*
%TO.P,J2,2,Pin_2*%
%TO.N,/D4*%
X209965000Y-82900000D03*
%TO.P,J2,3,Pin_3*%
%TO.N,/D5*%
X212505000Y-82900000D03*
%TO.P,J2,4,Pin_4*%
%TO.N,/D6*%
X215045000Y-82900000D03*
%TO.P,J2,5,Pin_5*%
%TO.N,/D7*%
X217585000Y-82900000D03*
%TD*%
D11*
%TO.P,FTDI-Header1,1,Pin_1*%
%TO.N,GND*%
X217940000Y-65400000D03*
D12*
%TO.P,FTDI-Header1,2,Pin_2*%
%TO.N,/FTDI-CTS*%
X215400000Y-65400000D03*
%TO.P,FTDI-Header1,3,Pin_3*%
%TO.N,+5V*%
X212860000Y-65400000D03*
%TO.P,FTDI-Header1,4,Pin_4*%
%TO.N,/FTDI-TX*%
X210320000Y-65400000D03*
%TO.P,FTDI-Header1,5,Pin_5*%
%TO.N,/FTDI-RX*%
X207780000Y-65400000D03*
%TO.P,FTDI-Header1,6,Pin_6*%
%TO.N,Net-(FTDI-Header1-Pin_6)*%
X205240000Y-65400000D03*
%TD*%
D11*
%TO.P,J4,1,Pin_1*%
%TO.N,GND*%
X191200000Y-65500000D03*
D12*
%TO.P,J4,2,Pin_2*%
%TO.N,+5V*%
X188660000Y-65500000D03*
%TO.P,J4,3,Pin_3*%
%TO.N,/SDA*%
X186120000Y-65500000D03*
%TO.P,J4,4,Pin_4*%
%TO.N,/SCL*%
X183580000Y-65500000D03*
%TD*%
D18*
%TO.P,J6,S1,SHIELD*%
%TO.N,Net-(J6-SHIELD-PadS1)*%
X128320000Y-67350000D03*
%TO.P,J6,S2,SHIELD*%
X119680000Y-67350000D03*
%TO.P,J6,S3,SHIELD*%
X128320000Y-63550000D03*
%TO.P,J6,S4,SHIELD*%
X119680000Y-63550000D03*
%TD*%
D19*
%TO.N,GND*%
X149050000Y-80050000D03*
X219939340Y-69132843D03*
X173400000Y-80600000D03*
X194489340Y-84632843D03*
X235850000Y-65050000D03*
X174350000Y-81150000D03*
X199800000Y-68450000D03*
X159300000Y-74750000D03*
X194772183Y-83572183D03*
X150100000Y-75100000D03*
X198700000Y-96600000D03*
X126200000Y-80100000D03*
X173400000Y-79550000D03*
X181600000Y-64300000D03*
X187400000Y-81800000D03*
X195000000Y-65000000D03*
X148500000Y-79100000D03*
X219196878Y-68390381D03*
X150550000Y-87550000D03*
X150100000Y-74000000D03*
X158522183Y-75527817D03*
X147300000Y-83950000D03*
X180150000Y-67200000D03*
X158800000Y-96500000D03*
X163050000Y-71750000D03*
X169200000Y-96500000D03*
X148900000Y-83000000D03*
X235850000Y-67200000D03*
X180150000Y-66150000D03*
X125250000Y-78500000D03*
X188700000Y-96600000D03*
X150100000Y-72950000D03*
X126200000Y-79000000D03*
X220717157Y-69910660D03*
X159900000Y-79600000D03*
X187400000Y-79700000D03*
X148800000Y-96500000D03*
X150000000Y-66400000D03*
X221000000Y-68850000D03*
X148350000Y-83950000D03*
X141650000Y-87750000D03*
X151050000Y-73450000D03*
X129100000Y-96700000D03*
X166216288Y-68851998D03*
X147400000Y-79100002D03*
X180150000Y-68300000D03*
X170750000Y-65800000D03*
X158239340Y-74467157D03*
X149550000Y-79100000D03*
X195550000Y-84350000D03*
X159550000Y-87350000D03*
X159900000Y-80550000D03*
X195600000Y-65900000D03*
X125250000Y-79550000D03*
X220222183Y-68072183D03*
X163850000Y-68950000D03*
X158150000Y-82150000D03*
X174350000Y-80050000D03*
X125250000Y-80650000D03*
X193746878Y-83890381D03*
X195267157Y-85410660D03*
X173400000Y-81700000D03*
X138900000Y-96700000D03*
X150950000Y-66950000D03*
X157461523Y-75244975D03*
X236800000Y-65550000D03*
X161050000Y-87350000D03*
X149449999Y-83950000D03*
X150000000Y-65350000D03*
X150000000Y-67500000D03*
X150950000Y-65850000D03*
X208800000Y-96500000D03*
X180822183Y-63522183D03*
X194000000Y-65000000D03*
X147800000Y-83000000D03*
X121300000Y-65300000D03*
X158981802Y-73724695D03*
X161750000Y-77900000D03*
X152200000Y-87600000D03*
X179100000Y-96500000D03*
X236800000Y-66650000D03*
X139800000Y-87750000D03*
X147950000Y-80050000D03*
X151050000Y-74550000D03*
X235850000Y-66100000D03*
X194500000Y-65900000D03*
X126700000Y-65250000D03*
X163100000Y-73300000D03*
%TO.N,+5V*%
X185330000Y-68830000D03*
X189000000Y-78200000D03*
X160300000Y-64800000D03*
X148700000Y-89800000D03*
X189400000Y-79875000D03*
X157150000Y-72950000D03*
%TO.N,/D2*%
X192000000Y-74700000D03*
X214100000Y-92900000D03*
%TO.N,/FTDI-TX*%
X192600000Y-72400000D03*
%TO.N,/FTDI-RX*%
X191200000Y-73487779D03*
%TO.N,/MISO*%
X221200000Y-73025000D03*
%TO.N,/MOSI*%
X222047830Y-73624035D03*
%TO.N,/A6*%
X199400000Y-70600000D03*
%TO.N,/A7*%
X198049847Y-69324847D03*
%TO.N,/A0*%
X194800000Y-72400000D03*
%TO.N,/A1*%
X193533706Y-70885778D03*
%TO.N,/A2*%
X193600000Y-68400000D03*
%TO.N,/A3*%
X194600000Y-68200000D03*
%TO.N,/SDA*%
X190023662Y-68800277D03*
%TO.N,/SCL*%
X190000000Y-69800000D03*
%TO.N,/D3*%
X187720101Y-76520101D03*
X194150000Y-81650000D03*
%TO.N,/D4*%
X194200000Y-80500000D03*
X191200000Y-75500000D03*
%TO.N,/BAT_V_OUT*%
X161793327Y-76200000D03*
X158200000Y-78300000D03*
%TO.N,Net-(U2-ISET)*%
X155300000Y-82950000D03*
X159000000Y-82900000D03*
%TO.N,/Boost_EN*%
X166162479Y-69975781D03*
%TD*%
D20*
%TO.N,+5V*%
X181350000Y-65700000D02*
X181350000Y-67200000D01*
X148300000Y-87596130D02*
X148300000Y-89400000D01*
X182980000Y-68830000D02*
X185330000Y-68830000D01*
X179350000Y-63700000D02*
X181350000Y-65700000D01*
X189000000Y-78200000D02*
X187717936Y-78200000D01*
X189392936Y-79875000D02*
X187408968Y-77891032D01*
X187408968Y-77891032D02*
X186100000Y-76582064D01*
X152150000Y-83746130D02*
X148300000Y-87596130D01*
D21*
X225840000Y-75000000D02*
X221100000Y-75000000D01*
X187717936Y-78200000D02*
X187408968Y-77891032D01*
D20*
X186100000Y-69600000D02*
X185330000Y-68830000D01*
D21*
X221100000Y-75000000D02*
X212860000Y-66760000D01*
D20*
X181350000Y-67200000D02*
X182980000Y-68830000D01*
X161400000Y-63700000D02*
X179350000Y-63700000D01*
X148300000Y-89400000D02*
X148700000Y-89800000D01*
X157150000Y-72950000D02*
X152150000Y-77950000D01*
D21*
X189400000Y-79875000D02*
X189392936Y-79875000D01*
D20*
X186100000Y-76582064D02*
X186100000Y-69600000D01*
D21*
X212860000Y-66760000D02*
X212860000Y-65400000D01*
D20*
X152150000Y-77950000D02*
X152150000Y-83746130D01*
X160300000Y-64800000D02*
X161400000Y-63700000D01*
D21*
%TO.N,/D2*%
X207700000Y-85500000D02*
X202800000Y-85500000D01*
X214100000Y-92900000D02*
X214100000Y-91900000D01*
X202800000Y-85500000D02*
X192000000Y-74700000D01*
X214100000Y-91900000D02*
X207700000Y-85500000D01*
D22*
%TO.N,/FTDI-TX*%
X193600000Y-67200000D02*
X208520000Y-67200000D01*
X192600000Y-68200000D02*
X193600000Y-67200000D01*
X208520000Y-67200000D02*
X210320000Y-65400000D01*
X192600000Y-72400000D02*
X192600000Y-68200000D01*
%TO.N,/FTDI-RX*%
X191200000Y-73487779D02*
X191800000Y-72887779D01*
X193413604Y-66750000D02*
X206430000Y-66750000D01*
X191800000Y-68363604D02*
X193413604Y-66750000D01*
X191800000Y-72887779D02*
X191800000Y-68363604D01*
X206430000Y-66750000D02*
X207780000Y-65400000D01*
%TO.N,/MISO*%
X226885000Y-67340000D02*
X227860000Y-67340000D01*
X221200000Y-73025000D02*
X226885000Y-67340000D01*
%TO.N,/MOSI*%
X228350000Y-69200000D02*
X229200000Y-68350000D01*
X222175965Y-73624035D02*
X226600000Y-69200000D01*
X229200000Y-68350000D02*
X229200000Y-66000000D01*
X222047830Y-73624035D02*
X222175965Y-73624035D01*
X229200000Y-66000000D02*
X230400000Y-64800000D01*
X226600000Y-69200000D02*
X228350000Y-69200000D01*
%TO.N,/A6*%
X199400000Y-70600000D02*
X207740000Y-70600000D01*
X207740000Y-70600000D02*
X215140000Y-78000000D01*
%TO.N,/A7*%
X198525000Y-69800000D02*
X209480000Y-69800000D01*
X198049847Y-69324847D02*
X198525000Y-69800000D01*
X209480000Y-69800000D02*
X217680000Y-78000000D01*
%TO.N,/A0*%
X199650000Y-76850000D02*
X203830000Y-76850000D01*
X194800000Y-72400000D02*
X195200000Y-72400000D01*
X203830000Y-76850000D02*
X204980000Y-78000000D01*
X195200000Y-72400000D02*
X199650000Y-76850000D01*
%TO.N,/A1*%
X200400000Y-76400000D02*
X205920000Y-76400000D01*
X205920000Y-76400000D02*
X207520000Y-78000000D01*
X195325000Y-71325000D02*
X200400000Y-76400000D01*
X193972928Y-71325000D02*
X195325000Y-71325000D01*
X193533706Y-70885778D02*
X193972928Y-71325000D01*
%TO.N,/A2*%
X193600000Y-68963604D02*
X200586396Y-75950000D01*
X208010000Y-75950000D02*
X210060000Y-78000000D01*
X200586396Y-75950000D02*
X208010000Y-75950000D01*
X193600000Y-68400000D02*
X193600000Y-68963604D01*
%TO.N,/A3*%
X200900000Y-75500000D02*
X210100000Y-75500000D01*
X194600000Y-68200000D02*
X194600000Y-69200000D01*
X210100000Y-75500000D02*
X212600000Y-78000000D01*
X194600000Y-69200000D02*
X200900000Y-75500000D01*
%TO.N,/SDA*%
X190023662Y-68800277D02*
X189420277Y-68800277D01*
X189420277Y-68800277D02*
X186120000Y-65500000D01*
%TO.N,/SCL*%
X183580000Y-65500000D02*
X184100000Y-65500000D01*
X188400000Y-69800000D02*
X190000000Y-69800000D01*
X184100000Y-65500000D02*
X188400000Y-69800000D01*
%TO.N,/D3*%
X194150000Y-81650000D02*
X194050000Y-81650000D01*
X188920101Y-76520101D02*
X187720101Y-76520101D01*
X194050000Y-81650000D02*
X188920101Y-76520101D01*
%TO.N,/D4*%
X192600000Y-76600000D02*
X191500000Y-75500000D01*
X191500000Y-75500000D02*
X191200000Y-75500000D01*
X192600000Y-78900000D02*
X192600000Y-76600000D01*
X194200000Y-80500000D02*
X192600000Y-78900000D01*
D23*
%TO.N,/BAT_V_OUT*%
X158200000Y-78150000D02*
X158200000Y-78300000D01*
D20*
X160150000Y-76200000D02*
X158200000Y-78150000D01*
X161793327Y-76200000D02*
X160150000Y-76200000D01*
D23*
%TO.N,Net-(U2-ISET)*%
X155350000Y-82900000D02*
X155300000Y-82950000D01*
X159000000Y-82900000D02*
X155350000Y-82900000D01*
D21*
%TO.N,/Boost_EN*%
X166162479Y-69975781D02*
X165788260Y-70350000D01*
X165788260Y-70350000D02*
X144650000Y-70350000D01*
X140750000Y-71650000D02*
X138250000Y-69150000D01*
X138250000Y-69150000D02*
X138250000Y-68650000D01*
X143350000Y-71650000D02*
X140750000Y-71650000D01*
X144650000Y-70350000D02*
X143350000Y-71650000D01*
%TD*%
%TA.AperFunction,Conductor*%
%TO.N,GND*%
G36*
X127195551Y-62954268D02*
G01*
X127262582Y-62973980D01*
X127308315Y-63026803D01*
X127319500Y-63078268D01*
X127319500Y-64100743D01*
X127334925Y-64252439D01*
X127395837Y-64446579D01*
X127395844Y-64446594D01*
X127494589Y-64624499D01*
X127494592Y-64624504D01*
X127627132Y-64778893D01*
X127627134Y-64778895D01*
X127788037Y-64903445D01*
X127788038Y-64903445D01*
X127788042Y-64903448D01*
X127970729Y-64993060D01*
X128167715Y-65044063D01*
X128370936Y-65054369D01*
X128572071Y-65023556D01*
X128762887Y-64952886D01*
X128935571Y-64845252D01*
X129083053Y-64705059D01*
X129199295Y-64538049D01*
X129279540Y-64351058D01*
X129320500Y-64151741D01*
X129320500Y-63079189D01*
X129340185Y-63012150D01*
X129392989Y-62966395D01*
X129444547Y-62955189D01*
X160765637Y-62968026D01*
X160832668Y-62987738D01*
X160878401Y-63040561D01*
X160888317Y-63109723D01*
X160859266Y-63173267D01*
X160853267Y-63179707D01*
X160140046Y-63892928D01*
X160078723Y-63926413D01*
X160078148Y-63926537D01*
X160020195Y-63938856D01*
X160020192Y-63938857D01*
X159847270Y-64015848D01*
X159847265Y-64015851D01*
X159694129Y-64127111D01*
X159567466Y-64267785D01*
X159472821Y-64431715D01*
X159472818Y-64431722D01*
X159417436Y-64602172D01*
X159414326Y-64611744D01*
X159394540Y-64800000D01*
X159414326Y-64988256D01*
X159414327Y-64988259D01*
X159472818Y-65168277D01*
X159472821Y-65168284D01*
X159567467Y-65332216D01*
X159688026Y-65466110D01*
X159694129Y-65472888D01*
X159847265Y-65584148D01*
X159847270Y-65584151D01*
X160020192Y-65661142D01*
X160020197Y-65661144D01*
X160205354Y-65700500D01*
X160205355Y-65700500D01*
X160394644Y-65700500D01*
X160394646Y-65700500D01*
X160579803Y-65661144D01*
X160752730Y-65584151D01*
X160905871Y-65472888D01*
X161032533Y-65332216D01*
X161127179Y-65168284D01*
X161179799Y-65006335D01*
X161210046Y-64956976D01*
X161676205Y-64490819D01*
X161737528Y-64457334D01*
X161763886Y-64454500D01*
X174026000Y-64454500D01*
X174093039Y-64474185D01*
X174138794Y-64526989D01*
X174150000Y-64578500D01*
X174150000Y-69650000D01*
X178850000Y-69650000D01*
X178850000Y-64578500D01*
X178869685Y-64511461D01*
X178922489Y-64465706D01*
X178974000Y-64454500D01*
X178986114Y-64454500D01*
X179053153Y-64474185D01*
X179073795Y-64490819D01*
X180559181Y-65976205D01*
X180592666Y-66037528D01*
X180595500Y-66063886D01*
X180595500Y-67136000D01*
X180594191Y-67153969D01*
X180590684Y-67177908D01*
X180595028Y-67227545D01*
X180595500Y-67238354D01*
X180595500Y-67243946D01*
X180599116Y-67274885D01*
X180599482Y-67278470D01*
X180606056Y-67353610D01*
X180607516Y-67360677D01*
X180607464Y-67360687D01*
X180609123Y-67368167D01*
X180609174Y-67368155D01*
X180610840Y-67375185D01*
X180636621Y-67446020D01*
X180637804Y-67449423D01*
X180661533Y-67521029D01*
X180664586Y-67527575D01*
X180664536Y-67527598D01*
X180667876Y-67534497D01*
X180667925Y-67534473D01*
X180671167Y-67540930D01*
X180712613Y-67603946D01*
X180714550Y-67606986D01*
X180754131Y-67671156D01*
X180758611Y-67676822D01*
X180758569Y-67676855D01*
X180763401Y-67682786D01*
X180763443Y-67682752D01*
X180768088Y-67688288D01*
X180822938Y-67740036D01*
X180825525Y-67742549D01*
X182401234Y-69318258D01*
X182413016Y-69331891D01*
X182426040Y-69349386D01*
X182427461Y-69351294D01*
X182465638Y-69383328D01*
X182473614Y-69390638D01*
X182477554Y-69394579D01*
X182477558Y-69394582D01*
X182477559Y-69394583D01*
X182482625Y-69398589D01*
X182502010Y-69413916D01*
X182504807Y-69416195D01*
X182562572Y-69464667D01*
X182568609Y-69468637D01*
X182568579Y-69468682D01*
X182575038Y-69472796D01*
X182575067Y-69472750D01*
X182581207Y-69476537D01*
X182581209Y-69476539D01*
X182649557Y-69508410D01*
X182652775Y-69509968D01*
X182720187Y-69543823D01*
X182720189Y-69543824D01*
X182720191Y-69543824D01*
X182726979Y-69546295D01*
X182726960Y-69546347D01*
X182734185Y-69548858D01*
X182734203Y-69548807D01*
X182741055Y-69551077D01*
X182741056Y-69551077D01*
X182741060Y-69551079D01*
X182815003Y-69566346D01*
X182818410Y-69567102D01*
X182891812Y-69584500D01*
X182891815Y-69584500D01*
X182898986Y-69585339D01*
X182898979Y-69585392D01*
X182906594Y-69586170D01*
X182906599Y-69586117D01*
X182913789Y-69586746D01*
X182913793Y-69586745D01*
X182913794Y-69586746D01*
X182975827Y-69584940D01*
X182989196Y-69584552D01*
X182992802Y-69584500D01*
X184796169Y-69584500D01*
X184863208Y-69604185D01*
X184869056Y-69608183D01*
X184877269Y-69614150D01*
X184877270Y-69614151D01*
X185050191Y-69691142D01*
X185050193Y-69691142D01*
X185050197Y-69691144D01*
X185108148Y-69703461D01*
X185169627Y-69736653D01*
X185170046Y-69737070D01*
X185309181Y-69876205D01*
X185342666Y-69937528D01*
X185345500Y-69963886D01*
X185345500Y-76518064D01*
X185344191Y-76536033D01*
X185340684Y-76559972D01*
X185345028Y-76609609D01*
X185345500Y-76620418D01*
X185345500Y-76626010D01*
X185349116Y-76656949D01*
X185349482Y-76660534D01*
X185356056Y-76735674D01*
X185357516Y-76742741D01*
X185357464Y-76742751D01*
X185359123Y-76750231D01*
X185359174Y-76750219D01*
X185360840Y-76757249D01*
X185386621Y-76828084D01*
X185387804Y-76831487D01*
X185411533Y-76903093D01*
X185414586Y-76909639D01*
X185414536Y-76909662D01*
X185417876Y-76916561D01*
X185417925Y-76916537D01*
X185421167Y-76922994D01*
X185462613Y-76986010D01*
X185464550Y-76989050D01*
X185504131Y-77053220D01*
X185508611Y-77058886D01*
X185508569Y-77058919D01*
X185513401Y-77064850D01*
X185513443Y-77064816D01*
X185518088Y-77070352D01*
X185572938Y-77122100D01*
X185575525Y-77124613D01*
X187139170Y-78688258D01*
X187150952Y-78701891D01*
X187165397Y-78721294D01*
X187203570Y-78753325D01*
X187211545Y-78760633D01*
X188493351Y-80042439D01*
X188523601Y-80091802D01*
X188572818Y-80243277D01*
X188572821Y-80243284D01*
X188667467Y-80407216D01*
X188780421Y-80532664D01*
X188794129Y-80547888D01*
X188947265Y-80659148D01*
X188947270Y-80659151D01*
X189120192Y-80736142D01*
X189120197Y-80736144D01*
X189305354Y-80775500D01*
X189305355Y-80775500D01*
X189494644Y-80775500D01*
X189494646Y-80775500D01*
X189679803Y-80736144D01*
X189852730Y-80659151D01*
X190005871Y-80547888D01*
X190132533Y-80407216D01*
X190227179Y-80243284D01*
X190285674Y-80063256D01*
X190305460Y-79875000D01*
X190285674Y-79686744D01*
X190227179Y-79506716D01*
X190132533Y-79342784D01*
X190005871Y-79202112D01*
X190005870Y-79202111D01*
X189852734Y-79090851D01*
X189852729Y-79090848D01*
X189692337Y-79019436D01*
X189639100Y-78974186D01*
X189618779Y-78907336D01*
X189637825Y-78840113D01*
X189650619Y-78823189D01*
X189732533Y-78732216D01*
X189827179Y-78568284D01*
X189827552Y-78567134D01*
X189827948Y-78566554D01*
X189829825Y-78562341D01*
X189830594Y-78562683D01*
X189866979Y-78509457D01*
X189931334Y-78482249D01*
X190000182Y-78494153D01*
X190033168Y-78517758D01*
X193222783Y-81707373D01*
X193256268Y-81768696D01*
X193258422Y-81782086D01*
X193264326Y-81838256D01*
X193264327Y-81838258D01*
X193264327Y-81838260D01*
X193322818Y-82018277D01*
X193322821Y-82018284D01*
X193417467Y-82182216D01*
X193524655Y-82301260D01*
X193544129Y-82322888D01*
X193697265Y-82434148D01*
X193697270Y-82434151D01*
X193870192Y-82511142D01*
X193870197Y-82511144D01*
X194055354Y-82550500D01*
X194055355Y-82550500D01*
X194244644Y-82550500D01*
X194244646Y-82550500D01*
X194429803Y-82511144D01*
X194602730Y-82434151D01*
X194755871Y-82322888D01*
X194882533Y-82182216D01*
X194977179Y-82018284D01*
X195035674Y-81838256D01*
X195055460Y-81650000D01*
X195035674Y-81461744D01*
X194977179Y-81281716D01*
X194917010Y-81177500D01*
X194900538Y-81109603D01*
X194923390Y-81043576D01*
X194932251Y-81032528D01*
X194932533Y-81032216D01*
X195027179Y-80868284D01*
X195085674Y-80688256D01*
X195105460Y-80500000D01*
X195085674Y-80311744D01*
X195027179Y-80131716D01*
X194932533Y-79967784D01*
X194805871Y-79827112D01*
X194737780Y-79777641D01*
X194652734Y-79715851D01*
X194652729Y-79715848D01*
X194479807Y-79638857D01*
X194479802Y-79638855D01*
X194334001Y-79607865D01*
X194294646Y-79599500D01*
X194294645Y-79599500D01*
X194235452Y-79599500D01*
X194168413Y-79579815D01*
X194147771Y-79563181D01*
X193261819Y-78677228D01*
X193228334Y-78615905D01*
X193225500Y-78589547D01*
X193225500Y-77202084D01*
X193245185Y-77135045D01*
X193297989Y-77089290D01*
X193367147Y-77079346D01*
X193430703Y-77108371D01*
X193437181Y-77114403D01*
X202293979Y-85971201D01*
X202299099Y-85976639D01*
X202338417Y-86021020D01*
X202387214Y-86054703D01*
X202393233Y-86059132D01*
X202439894Y-86095688D01*
X202448865Y-86099725D01*
X202468420Y-86110754D01*
X202476518Y-86116344D01*
X202531942Y-86137363D01*
X202538840Y-86140220D01*
X202592915Y-86164557D01*
X202602596Y-86166331D01*
X202624218Y-86172359D01*
X202633416Y-86175847D01*
X202633417Y-86175848D01*
X202641982Y-86176887D01*
X202692276Y-86182994D01*
X202699652Y-86184117D01*
X202757971Y-86194805D01*
X202817138Y-86191226D01*
X202824625Y-86191000D01*
X207362416Y-86191000D01*
X207429455Y-86210685D01*
X207450097Y-86227319D01*
X213372681Y-92149902D01*
X213406166Y-92211225D01*
X213409000Y-92237583D01*
X213409000Y-92274057D01*
X213389315Y-92341096D01*
X213377153Y-92357026D01*
X213367466Y-92367785D01*
X213272821Y-92531715D01*
X213272818Y-92531722D01*
X213214327Y-92711740D01*
X213214326Y-92711744D01*
X213194540Y-92900000D01*
X213214326Y-93088256D01*
X213214327Y-93088259D01*
X213272818Y-93268277D01*
X213272821Y-93268284D01*
X213367467Y-93432216D01*
X213494129Y-93572888D01*
X213647265Y-93684148D01*
X213647270Y-93684151D01*
X213820192Y-93761142D01*
X213820197Y-93761144D01*
X214005354Y-93800500D01*
X214005355Y-93800500D01*
X214194644Y-93800500D01*
X214194646Y-93800500D01*
X214379803Y-93761144D01*
X214552730Y-93684151D01*
X214705871Y-93572888D01*
X214832533Y-93432216D01*
X214927179Y-93268284D01*
X214985674Y-93088256D01*
X215005460Y-92900000D01*
X214985674Y-92711744D01*
X214927179Y-92531716D01*
X214832533Y-92367784D01*
X214826566Y-92361157D01*
X214822847Y-92357026D01*
X214792620Y-92294034D01*
X214791000Y-92274057D01*
X214791000Y-91924625D01*
X214791226Y-91917138D01*
X214794805Y-91857972D01*
X214784114Y-91799636D01*
X214782991Y-91792253D01*
X214775848Y-91733418D01*
X214772359Y-91724218D01*
X214766331Y-91702596D01*
X214764557Y-91692915D01*
X214740221Y-91638842D01*
X214737362Y-91631938D01*
X214716346Y-91576522D01*
X214716345Y-91576520D01*
X214716344Y-91576518D01*
X214710748Y-91568411D01*
X214699725Y-91548866D01*
X214695688Y-91539895D01*
X214659134Y-91493238D01*
X214654699Y-91487211D01*
X214621020Y-91438417D01*
X214576630Y-91399091D01*
X214571192Y-91393971D01*
X208206027Y-85028805D01*
X208200893Y-85023351D01*
X208161583Y-84978980D01*
X208112792Y-84945302D01*
X208106760Y-84940863D01*
X208060108Y-84904314D01*
X208060099Y-84904308D01*
X208051134Y-84900274D01*
X208031586Y-84889250D01*
X208023482Y-84883656D01*
X208023478Y-84883653D01*
X207968061Y-84862636D01*
X207961144Y-84859772D01*
X207907081Y-84835441D01*
X207907082Y-84835441D01*
X207897395Y-84833666D01*
X207875792Y-84827644D01*
X207866582Y-84824152D01*
X207807735Y-84817006D01*
X207800333Y-84815879D01*
X207742030Y-84805195D01*
X207742025Y-84805195D01*
X207682861Y-84808774D01*
X207675374Y-84809000D01*
X203137584Y-84809000D01*
X203070545Y-84789315D01*
X203049903Y-84772681D01*
X192928081Y-74650859D01*
X192894596Y-74589536D01*
X192892441Y-74576137D01*
X192888259Y-74536344D01*
X192885674Y-74511744D01*
X192837986Y-74364977D01*
X192827181Y-74331721D01*
X192827178Y-74331715D01*
X192817294Y-74314595D01*
X192732533Y-74167784D01*
X192605871Y-74027112D01*
X192605870Y-74027111D01*
X192452734Y-73915851D01*
X192452729Y-73915848D01*
X192279807Y-73838857D01*
X192279802Y-73838855D01*
X192182242Y-73818119D01*
X192120760Y-73784927D01*
X192086984Y-73723764D01*
X192086799Y-73682687D01*
X192084994Y-73682498D01*
X192085672Y-73676038D01*
X192085674Y-73676035D01*
X192103321Y-73508123D01*
X192129904Y-73443513D01*
X192138951Y-73433417D01*
X192183788Y-73388580D01*
X192196042Y-73378765D01*
X192195859Y-73378543D01*
X192201868Y-73373570D01*
X192201877Y-73373565D01*
X192247949Y-73324501D01*
X192250563Y-73321805D01*
X192265195Y-73307174D01*
X192326518Y-73273692D01*
X192378653Y-73273569D01*
X192505354Y-73300500D01*
X192505355Y-73300500D01*
X192694644Y-73300500D01*
X192694646Y-73300500D01*
X192879803Y-73261144D01*
X193052730Y-73184151D01*
X193205871Y-73072888D01*
X193332533Y-72932216D01*
X193427179Y-72768284D01*
X193485674Y-72588256D01*
X193505460Y-72400000D01*
X193485674Y-72211744D01*
X193427179Y-72031716D01*
X193392861Y-71972276D01*
X193376389Y-71904378D01*
X193399241Y-71838351D01*
X193454163Y-71795160D01*
X193500249Y-71786278D01*
X193501301Y-71786278D01*
X193568340Y-71805963D01*
X193586183Y-71819885D01*
X193602337Y-71835054D01*
X193602346Y-71835062D01*
X193602350Y-71835064D01*
X193619901Y-71844713D01*
X193636159Y-71855392D01*
X193651992Y-71867674D01*
X193687338Y-71882968D01*
X193692083Y-71885022D01*
X193702563Y-71890155D01*
X193740836Y-71911197D01*
X193760240Y-71916179D01*
X193778638Y-71922478D01*
X193797033Y-71930438D01*
X193840182Y-71937271D01*
X193851597Y-71939635D01*
X193863206Y-71942616D01*
X193923242Y-71978354D01*
X193954426Y-72040878D01*
X193950296Y-72101036D01*
X193914327Y-72211739D01*
X193914327Y-72211740D01*
X193914326Y-72211744D01*
X193894540Y-72400000D01*
X193914326Y-72588256D01*
X193914327Y-72588259D01*
X193972818Y-72768277D01*
X193972821Y-72768284D01*
X194067467Y-72932216D01*
X194171486Y-73047740D01*
X194194129Y-73072888D01*
X194347265Y-73184148D01*
X194347270Y-73184151D01*
X194520192Y-73261142D01*
X194520197Y-73261144D01*
X194705354Y-73300500D01*
X194705355Y-73300500D01*
X194894644Y-73300500D01*
X194894646Y-73300500D01*
X195079803Y-73261144D01*
X195079808Y-73261141D01*
X195080553Y-73260900D01*
X195081013Y-73260886D01*
X195086160Y-73259793D01*
X195086359Y-73260733D01*
X195150394Y-73258901D01*
X195206558Y-73291148D01*
X199149197Y-77233788D01*
X199159022Y-77246051D01*
X199159243Y-77245869D01*
X199164211Y-77251874D01*
X199164213Y-77251876D01*
X199164214Y-77251877D01*
X199170078Y-77257384D01*
X199213222Y-77297899D01*
X199216021Y-77300612D01*
X199235522Y-77320114D01*
X199235526Y-77320117D01*
X199235529Y-77320120D01*
X199238702Y-77322581D01*
X199247574Y-77330159D01*
X199279418Y-77360062D01*
X199296976Y-77369714D01*
X199313235Y-77380395D01*
X199329064Y-77392673D01*
X199369155Y-77410021D01*
X199379626Y-77415151D01*
X199402180Y-77427550D01*
X199417902Y-77436194D01*
X199417904Y-77436195D01*
X199417908Y-77436197D01*
X199437316Y-77441180D01*
X199455717Y-77447480D01*
X199455892Y-77447556D01*
X199474101Y-77455436D01*
X199474102Y-77455436D01*
X199474104Y-77455437D01*
X199517250Y-77462270D01*
X199528672Y-77464636D01*
X199570981Y-77475500D01*
X199591016Y-77475500D01*
X199610414Y-77477026D01*
X199630194Y-77480159D01*
X199630195Y-77480160D01*
X199630195Y-77480159D01*
X199630196Y-77480160D01*
X199673675Y-77476050D01*
X199685344Y-77475500D01*
X203505500Y-77475500D01*
X203572539Y-77495185D01*
X203618294Y-77547989D01*
X203629500Y-77599500D01*
X203629500Y-78897870D01*
X203629501Y-78897876D01*
X203635908Y-78957483D01*
X203686202Y-79092328D01*
X203686206Y-79092335D01*
X203772452Y-79207544D01*
X203772455Y-79207547D01*
X203887664Y-79293793D01*
X203887671Y-79293797D01*
X204022517Y-79344091D01*
X204022516Y-79344091D01*
X204029444Y-79344835D01*
X204082127Y-79350500D01*
X205877872Y-79350499D01*
X205937483Y-79344091D01*
X206072331Y-79293796D01*
X206187546Y-79207546D01*
X206273796Y-79092331D01*
X206322810Y-78960916D01*
X206364681Y-78904984D01*
X206430145Y-78880566D01*
X206498418Y-78895417D01*
X206526673Y-78916569D01*
X206648599Y-79038495D01*
X206745384Y-79106265D01*
X206842165Y-79174032D01*
X206842167Y-79174033D01*
X206842170Y-79174035D01*
X207056337Y-79273903D01*
X207284592Y-79335063D01*
X207461034Y-79350500D01*
X207519999Y-79355659D01*
X207520000Y-79355659D01*
X207520001Y-79355659D01*
X207578966Y-79350500D01*
X207755408Y-79335063D01*
X207983663Y-79273903D01*
X208197830Y-79174035D01*
X208391401Y-79038495D01*
X208558495Y-78871401D01*
X208688425Y-78685842D01*
X208743002Y-78642217D01*
X208812500Y-78635023D01*
X208874855Y-78666546D01*
X208891575Y-78685842D01*
X208999596Y-78840113D01*
X209021505Y-78871401D01*
X209188599Y-79038495D01*
X209285384Y-79106265D01*
X209382165Y-79174032D01*
X209382167Y-79174033D01*
X209382170Y-79174035D01*
X209596337Y-79273903D01*
X209824592Y-79335063D01*
X210001034Y-79350500D01*
X210059999Y-79355659D01*
X210060000Y-79355659D01*
X210060001Y-79355659D01*
X210118966Y-79350500D01*
X210295408Y-79335063D01*
X210523663Y-79273903D01*
X210737830Y-79174035D01*
X210931401Y-79038495D01*
X211098495Y-78871401D01*
X211228425Y-78685842D01*
X211283002Y-78642217D01*
X211352500Y-78635023D01*
X211414855Y-78666546D01*
X211431575Y-78685842D01*
X211539596Y-78840113D01*
X211561505Y-78871401D01*
X211728599Y-79038495D01*
X211825384Y-79106265D01*
X211922165Y-79174032D01*
X211922167Y-79174033D01*
X211922170Y-79174035D01*
X212136337Y-79273903D01*
X212364592Y-79335063D01*
X212541034Y-79350500D01*
X212599999Y-79355659D01*
X212600000Y-79355659D01*
X212600001Y-79355659D01*
X212658966Y-79350500D01*
X212835408Y-79335063D01*
X213063663Y-79273903D01*
X213277830Y-79174035D01*
X213471401Y-79038495D01*
X213638495Y-78871401D01*
X213768425Y-78685842D01*
X213823002Y-78642217D01*
X213892500Y-78635023D01*
X213954855Y-78666546D01*
X213971575Y-78685842D01*
X214079596Y-78840113D01*
X214101505Y-78871401D01*
X214268599Y-79038495D01*
X214365384Y-79106265D01*
X214462165Y-79174032D01*
X214462167Y-79174033D01*
X214462170Y-79174035D01*
X214676337Y-79273903D01*
X214904592Y-79335063D01*
X215081034Y-79350500D01*
X215139999Y-79355659D01*
X215140000Y-79355659D01*
X215140001Y-79355659D01*
X215198966Y-79350500D01*
X215375408Y-79335063D01*
X215603663Y-79273903D01*
X215817830Y-79174035D01*
X216011401Y-79038495D01*
X216178495Y-78871401D01*
X216308425Y-78685842D01*
X216363002Y-78642217D01*
X216432500Y-78635023D01*
X216494855Y-78666546D01*
X216511575Y-78685842D01*
X216619596Y-78840113D01*
X216641505Y-78871401D01*
X216808599Y-79038495D01*
X216905384Y-79106265D01*
X217002165Y-79174032D01*
X217002167Y-79174033D01*
X217002170Y-79174035D01*
X217216337Y-79273903D01*
X217444592Y-79335063D01*
X217621034Y-79350500D01*
X217679999Y-79355659D01*
X217680000Y-79355659D01*
X217680001Y-79355659D01*
X217738966Y-79350500D01*
X217915408Y-79335063D01*
X218143663Y-79273903D01*
X218357830Y-79174035D01*
X218551401Y-79038495D01*
X218718495Y-78871401D01*
X218773925Y-78792239D01*
X218828502Y-78748614D01*
X218898000Y-78741420D01*
X218960355Y-78772943D01*
X218995769Y-78833173D01*
X218999500Y-78863362D01*
X218999500Y-82178522D01*
X218979815Y-82245561D01*
X218927011Y-82291316D01*
X218857853Y-82301260D01*
X218794297Y-82272235D01*
X218763118Y-82230927D01*
X218759035Y-82222171D01*
X218759034Y-82222170D01*
X218759033Y-82222167D01*
X218623494Y-82028597D01*
X218456402Y-81861506D01*
X218456395Y-81861501D01*
X218262834Y-81725967D01*
X218262830Y-81725965D01*
X218222959Y-81707373D01*
X218048663Y-81626097D01*
X218048659Y-81626096D01*
X218048655Y-81626094D01*
X217820413Y-81564938D01*
X217820403Y-81564936D01*
X217585001Y-81544341D01*
X217584999Y-81544341D01*
X217349596Y-81564936D01*
X217349586Y-81564938D01*
X217121344Y-81626094D01*
X217121335Y-81626098D01*
X216907171Y-81725964D01*
X216907169Y-81725965D01*
X216713597Y-81861505D01*
X216546505Y-82028597D01*
X216416575Y-82214158D01*
X216361998Y-82257783D01*
X216292500Y-82264977D01*
X216230145Y-82233454D01*
X216213425Y-82214158D01*
X216083494Y-82028597D01*
X215916402Y-81861506D01*
X215916395Y-81861501D01*
X215722834Y-81725967D01*
X215722830Y-81725965D01*
X215682959Y-81707373D01*
X215508663Y-81626097D01*
X215508659Y-81626096D01*
X215508655Y-81626094D01*
X215280413Y-81564938D01*
X215280403Y-81564936D01*
X215045001Y-81544341D01*
X215044999Y-81544341D01*
X214809596Y-81564936D01*
X214809586Y-81564938D01*
X214581344Y-81626094D01*
X214581335Y-81626098D01*
X214367171Y-81725964D01*
X214367169Y-81725965D01*
X214173597Y-81861505D01*
X214006505Y-82028597D01*
X213876575Y-82214158D01*
X213821998Y-82257783D01*
X213752500Y-82264977D01*
X213690145Y-82233454D01*
X213673425Y-82214158D01*
X213543494Y-82028597D01*
X213376402Y-81861506D01*
X213376395Y-81861501D01*
X213182834Y-81725967D01*
X213182830Y-81725965D01*
X213142959Y-81707373D01*
X212968663Y-81626097D01*
X212968659Y-81626096D01*
X212968655Y-81626094D01*
X212740413Y-81564938D01*
X212740403Y-81564936D01*
X212505001Y-81544341D01*
X212504999Y-81544341D01*
X212269596Y-81564936D01*
X212269586Y-81564938D01*
X212041344Y-81626094D01*
X212041335Y-81626098D01*
X211827171Y-81725964D01*
X211827169Y-81725965D01*
X211633597Y-81861505D01*
X211466505Y-82028597D01*
X211336575Y-82214158D01*
X211281998Y-82257783D01*
X211212500Y-82264977D01*
X211150145Y-82233454D01*
X211133425Y-82214158D01*
X211003494Y-82028597D01*
X210836402Y-81861506D01*
X210836395Y-81861501D01*
X210642834Y-81725967D01*
X210642830Y-81725965D01*
X210602959Y-81707373D01*
X210428663Y-81626097D01*
X210428659Y-81626096D01*
X210428655Y-81626094D01*
X210200413Y-81564938D01*
X210200403Y-81564936D01*
X209965001Y-81544341D01*
X209964999Y-81544341D01*
X209729596Y-81564936D01*
X209729586Y-81564938D01*
X209501344Y-81626094D01*
X209501335Y-81626098D01*
X209287171Y-81725964D01*
X209287169Y-81725965D01*
X209093600Y-81861503D01*
X208971673Y-81983430D01*
X208910350Y-82016914D01*
X208840658Y-82011930D01*
X208784725Y-81970058D01*
X208767810Y-81939081D01*
X208718797Y-81807671D01*
X208718793Y-81807664D01*
X208632547Y-81692455D01*
X208632544Y-81692452D01*
X208517335Y-81606206D01*
X208517328Y-81606202D01*
X208382482Y-81555908D01*
X208382483Y-81555908D01*
X208322883Y-81549501D01*
X208322881Y-81549500D01*
X208322873Y-81549500D01*
X208322864Y-81549500D01*
X206527129Y-81549500D01*
X206527123Y-81549501D01*
X206467516Y-81555908D01*
X206332671Y-81606202D01*
X206332664Y-81606206D01*
X206217455Y-81692452D01*
X206217452Y-81692455D01*
X206131206Y-81807664D01*
X206131202Y-81807671D01*
X206080908Y-81942517D01*
X206074501Y-82002116D01*
X206074500Y-82002135D01*
X206074500Y-83797870D01*
X206074501Y-83797876D01*
X206080908Y-83857483D01*
X206131202Y-83992328D01*
X206131206Y-83992335D01*
X206217452Y-84107544D01*
X206217455Y-84107547D01*
X206332664Y-84193793D01*
X206332671Y-84193797D01*
X206467517Y-84244091D01*
X206467516Y-84244091D01*
X206474444Y-84244835D01*
X206527127Y-84250500D01*
X208322872Y-84250499D01*
X208382483Y-84244091D01*
X208517331Y-84193796D01*
X208632546Y-84107546D01*
X208718796Y-83992331D01*
X208767810Y-83860916D01*
X208809681Y-83804984D01*
X208875145Y-83780566D01*
X208943418Y-83795417D01*
X208971673Y-83816569D01*
X209093599Y-83938495D01*
X209174492Y-83995137D01*
X209287165Y-84074032D01*
X209287167Y-84074033D01*
X209287170Y-84074035D01*
X209501337Y-84173903D01*
X209729592Y-84235063D01*
X209906034Y-84250500D01*
X209964999Y-84255659D01*
X209965000Y-84255659D01*
X209965001Y-84255659D01*
X210023966Y-84250500D01*
X210200408Y-84235063D01*
X210428663Y-84173903D01*
X210642830Y-84074035D01*
X210836401Y-83938495D01*
X211003495Y-83771401D01*
X211133425Y-83585842D01*
X211188002Y-83542217D01*
X211257500Y-83535023D01*
X211319855Y-83566546D01*
X211336575Y-83585842D01*
X211466500Y-83771395D01*
X211466505Y-83771401D01*
X211633599Y-83938495D01*
X211714492Y-83995137D01*
X211827165Y-84074032D01*
X211827167Y-84074033D01*
X211827170Y-84074035D01*
X212041337Y-84173903D01*
X212269592Y-84235063D01*
X212446034Y-84250500D01*
X212504999Y-84255659D01*
X212505000Y-84255659D01*
X212505001Y-84255659D01*
X212563966Y-84250500D01*
X212740408Y-84235063D01*
X212968663Y-84173903D01*
X213182830Y-84074035D01*
X213376401Y-83938495D01*
X213543495Y-83771401D01*
X213673425Y-83585842D01*
X213728002Y-83542217D01*
X213797500Y-83535023D01*
X213859855Y-83566546D01*
X213876575Y-83585842D01*
X214006500Y-83771395D01*
X214006505Y-83771401D01*
X214173599Y-83938495D01*
X214254492Y-83995137D01*
X214367165Y-84074032D01*
X214367167Y-84074033D01*
X214367170Y-84074035D01*
X214581337Y-84173903D01*
X214809592Y-84235063D01*
X214986034Y-84250500D01*
X215044999Y-84255659D01*
X215045000Y-84255659D01*
X215045001Y-84255659D01*
X215103966Y-84250500D01*
X215280408Y-84235063D01*
X215508663Y-84173903D01*
X215722830Y-84074035D01*
X215916401Y-83938495D01*
X216083495Y-83771401D01*
X216213425Y-83585842D01*
X216268002Y-83542217D01*
X216337500Y-83535023D01*
X216399855Y-83566546D01*
X216416575Y-83585842D01*
X216546500Y-83771395D01*
X216546505Y-83771401D01*
X216713599Y-83938495D01*
X216794492Y-83995137D01*
X216907165Y-84074032D01*
X216907167Y-84074033D01*
X216907170Y-84074035D01*
X217121337Y-84173903D01*
X217349592Y-84235063D01*
X217526034Y-84250500D01*
X217584999Y-84255659D01*
X217585000Y-84255659D01*
X217585001Y-84255659D01*
X217643966Y-84250500D01*
X217820408Y-84235063D01*
X218048663Y-84173903D01*
X218262830Y-84074035D01*
X218456401Y-83938495D01*
X218623495Y-83771401D01*
X218759035Y-83577830D01*
X218763117Y-83569075D01*
X218809286Y-83516636D01*
X218876479Y-83497481D01*
X218943361Y-83517694D01*
X218988698Y-83570858D01*
X218999500Y-83621477D01*
X218999502Y-94907290D01*
X218999502Y-94997128D01*
X218999370Y-95002855D01*
X218982705Y-95363304D01*
X218981648Y-95374708D01*
X218932194Y-95729232D01*
X218930089Y-95740491D01*
X218848137Y-96088932D01*
X218845003Y-96099948D01*
X218731244Y-96439356D01*
X218727106Y-96450036D01*
X218582524Y-96777484D01*
X218577419Y-96787737D01*
X218403236Y-97100454D01*
X218397207Y-97110192D01*
X218194907Y-97405514D01*
X218188004Y-97414654D01*
X217959329Y-97690036D01*
X217951613Y-97698500D01*
X217698500Y-97951614D01*
X217690036Y-97959330D01*
X217414653Y-98188005D01*
X217405513Y-98194908D01*
X217110191Y-98397207D01*
X217100453Y-98403236D01*
X216787736Y-98577420D01*
X216777483Y-98582525D01*
X216450035Y-98727107D01*
X216439355Y-98731245D01*
X216099947Y-98845003D01*
X216088931Y-98848137D01*
X215740490Y-98930089D01*
X215729231Y-98932194D01*
X215374707Y-98981648D01*
X215363302Y-98982705D01*
X215002930Y-98999365D01*
X214997156Y-98999497D01*
X123134274Y-98964004D01*
X123133465Y-98963967D01*
X123128237Y-98963967D01*
X123038407Y-98963967D01*
X123032681Y-98963835D01*
X122672224Y-98947172D01*
X122660819Y-98946115D01*
X122306291Y-98896663D01*
X122295033Y-98894558D01*
X121946597Y-98812608D01*
X121935581Y-98809474D01*
X121596179Y-98695720D01*
X121585498Y-98691583D01*
X121338503Y-98582525D01*
X121258028Y-98546992D01*
X121247784Y-98541890D01*
X121144006Y-98484086D01*
X120935070Y-98367710D01*
X120925332Y-98361681D01*
X120630016Y-98159386D01*
X120620876Y-98152484D01*
X120345481Y-97923800D01*
X120337017Y-97916083D01*
X120319639Y-97898705D01*
X120083899Y-97662964D01*
X120076215Y-97654536D01*
X119847506Y-97379112D01*
X119840616Y-97369988D01*
X119638317Y-97074666D01*
X119632288Y-97064928D01*
X119596406Y-97000507D01*
X119458104Y-96752206D01*
X119453011Y-96741979D01*
X119308411Y-96414487D01*
X119304284Y-96403833D01*
X119190526Y-96064423D01*
X119187394Y-96053412D01*
X119105440Y-95704955D01*
X119103335Y-95693697D01*
X119058047Y-95369028D01*
X119053883Y-95339173D01*
X119052827Y-95327775D01*
X119048573Y-95235760D01*
X119036167Y-94967386D01*
X119036035Y-94961660D01*
X119036035Y-94869664D01*
X119035711Y-94862935D01*
X119018016Y-89377908D01*
X147540684Y-89377908D01*
X147545028Y-89427545D01*
X147545500Y-89438354D01*
X147545500Y-89443946D01*
X147549116Y-89474885D01*
X147549482Y-89478470D01*
X147556056Y-89553610D01*
X147557516Y-89560677D01*
X147557464Y-89560687D01*
X147559123Y-89568167D01*
X147559174Y-89568155D01*
X147560840Y-89575185D01*
X147586621Y-89646020D01*
X147587804Y-89649423D01*
X147611533Y-89721029D01*
X147614586Y-89727575D01*
X147614536Y-89727598D01*
X147617876Y-89734497D01*
X147617925Y-89734473D01*
X147621167Y-89740930D01*
X147662613Y-89803946D01*
X147664550Y-89806986D01*
X147704131Y-89871156D01*
X147708611Y-89876822D01*
X147708569Y-89876855D01*
X147713401Y-89882786D01*
X147713443Y-89882752D01*
X147718088Y-89888288D01*
X147772938Y-89940036D01*
X147775525Y-89942549D01*
X147789951Y-89956975D01*
X147820201Y-90006338D01*
X147872818Y-90168277D01*
X147872821Y-90168284D01*
X147967467Y-90332216D01*
X148094129Y-90472888D01*
X148247265Y-90584148D01*
X148247270Y-90584151D01*
X148420192Y-90661142D01*
X148420197Y-90661144D01*
X148605354Y-90700500D01*
X148605355Y-90700500D01*
X148794644Y-90700500D01*
X148794646Y-90700500D01*
X148979803Y-90661144D01*
X149152730Y-90584151D01*
X149305871Y-90472888D01*
X149432533Y-90332216D01*
X149527179Y-90168284D01*
X149585674Y-89988256D01*
X149605460Y-89800000D01*
X149585674Y-89611744D01*
X149527179Y-89431716D01*
X149432533Y-89267784D01*
X149305871Y-89127112D01*
X149305870Y-89127111D01*
X149152731Y-89015849D01*
X149128063Y-89004866D01*
X149074826Y-88959615D01*
X149054506Y-88892765D01*
X149054500Y-88891587D01*
X149054500Y-87960015D01*
X149074185Y-87892976D01*
X149090814Y-87872339D01*
X152638264Y-84324888D01*
X152651883Y-84313118D01*
X152671294Y-84298669D01*
X152703334Y-84260484D01*
X152710623Y-84252529D01*
X152714583Y-84248571D01*
X152733927Y-84224104D01*
X152736161Y-84221362D01*
X152784667Y-84163557D01*
X152784671Y-84163548D01*
X152788637Y-84157520D01*
X152788683Y-84157550D01*
X152792795Y-84151095D01*
X152792748Y-84151066D01*
X152796532Y-84144929D01*
X152796539Y-84144921D01*
X152828417Y-84076558D01*
X152829972Y-84073344D01*
X152863824Y-84005941D01*
X152863826Y-84005928D01*
X152866293Y-83999154D01*
X152866346Y-83999173D01*
X152868858Y-83991945D01*
X152868807Y-83991928D01*
X152871077Y-83985075D01*
X152871077Y-83985073D01*
X152871079Y-83985070D01*
X152886336Y-83911171D01*
X152887104Y-83907708D01*
X152904500Y-83834318D01*
X152904500Y-83834310D01*
X152905338Y-83827146D01*
X152905392Y-83827152D01*
X152906170Y-83819535D01*
X152906117Y-83819531D01*
X152906746Y-83812341D01*
X152906401Y-83800500D01*
X152904552Y-83736949D01*
X152904500Y-83733342D01*
X152904500Y-82950000D01*
X154394540Y-82950000D01*
X154414326Y-83138256D01*
X154414327Y-83138259D01*
X154472818Y-83318277D01*
X154472821Y-83318284D01*
X154567467Y-83482216D01*
X154653562Y-83577834D01*
X154694129Y-83622888D01*
X154847265Y-83734148D01*
X154847270Y-83734151D01*
X155020192Y-83811142D01*
X155020197Y-83811144D01*
X155205354Y-83850500D01*
X155205355Y-83850500D01*
X155394644Y-83850500D01*
X155394646Y-83850500D01*
X155579803Y-83811144D01*
X155752730Y-83734151D01*
X155905871Y-83622888D01*
X155954817Y-83568527D01*
X156014304Y-83531879D01*
X156046967Y-83527500D01*
X158298053Y-83527500D01*
X158365092Y-83547185D01*
X158390199Y-83568523D01*
X158394129Y-83572888D01*
X158394132Y-83572891D01*
X158394135Y-83572893D01*
X158547265Y-83684148D01*
X158547270Y-83684151D01*
X158720192Y-83761142D01*
X158720197Y-83761144D01*
X158905354Y-83800500D01*
X158905355Y-83800500D01*
X159094644Y-83800500D01*
X159094646Y-83800500D01*
X159279803Y-83761144D01*
X159452730Y-83684151D01*
X159605871Y-83572888D01*
X159732533Y-83432216D01*
X159827179Y-83268284D01*
X159885674Y-83088256D01*
X159905460Y-82900000D01*
X159885674Y-82711744D01*
X159827179Y-82531716D01*
X159732533Y-82367784D01*
X159605871Y-82227112D01*
X159605870Y-82227111D01*
X159452734Y-82115851D01*
X159452729Y-82115848D01*
X159279807Y-82038857D01*
X159279802Y-82038855D01*
X159134001Y-82007865D01*
X159094646Y-81999500D01*
X158905354Y-81999500D01*
X158872897Y-82006398D01*
X158720197Y-82038855D01*
X158720192Y-82038857D01*
X158547270Y-82115848D01*
X158547265Y-82115851D01*
X158394135Y-82227106D01*
X158394132Y-82227108D01*
X158392175Y-82229281D01*
X158390200Y-82231474D01*
X158330714Y-82268121D01*
X158298053Y-82272500D01*
X155939813Y-82272500D01*
X155872774Y-82252815D01*
X155866928Y-82248818D01*
X155752734Y-82165851D01*
X155752729Y-82165848D01*
X155579807Y-82088857D01*
X155579802Y-82088855D01*
X155434001Y-82057865D01*
X155394646Y-82049500D01*
X155205354Y-82049500D01*
X155172897Y-82056398D01*
X155020197Y-82088855D01*
X155020192Y-82088857D01*
X154847270Y-82165848D01*
X154847265Y-82165851D01*
X154694129Y-82277111D01*
X154567466Y-82417785D01*
X154472821Y-82581715D01*
X154472818Y-82581722D01*
X154430573Y-82711740D01*
X154414326Y-82761744D01*
X154394540Y-82950000D01*
X152904500Y-82950000D01*
X152904500Y-78313885D01*
X152908577Y-78300000D01*
X157294540Y-78300000D01*
X157314326Y-78488256D01*
X157314327Y-78488259D01*
X157372818Y-78668277D01*
X157372821Y-78668284D01*
X157467467Y-78832216D01*
X157580258Y-78957483D01*
X157594129Y-78972888D01*
X157747265Y-79084148D01*
X157747270Y-79084151D01*
X157920192Y-79161142D01*
X157920197Y-79161144D01*
X158105354Y-79200500D01*
X158105355Y-79200500D01*
X158294644Y-79200500D01*
X158294646Y-79200500D01*
X158479803Y-79161144D01*
X158652730Y-79084151D01*
X158805871Y-78972888D01*
X158932533Y-78832216D01*
X159027179Y-78668284D01*
X159085674Y-78488256D01*
X159099511Y-78356590D01*
X159126095Y-78291977D01*
X159135142Y-78281880D01*
X160426205Y-76990819D01*
X160487528Y-76957334D01*
X160513886Y-76954500D01*
X161259496Y-76954500D01*
X161326535Y-76974185D01*
X161332383Y-76978183D01*
X161340596Y-76984150D01*
X161340597Y-76984151D01*
X161513519Y-77061142D01*
X161513524Y-77061144D01*
X161698681Y-77100500D01*
X161698682Y-77100500D01*
X161887971Y-77100500D01*
X161887973Y-77100500D01*
X162073130Y-77061144D01*
X162246057Y-76984151D01*
X162399198Y-76872888D01*
X162525860Y-76732216D01*
X162620506Y-76568284D01*
X162679001Y-76388256D01*
X162698787Y-76200000D01*
X162679001Y-76011744D01*
X162620506Y-75831716D01*
X162525860Y-75667784D01*
X162399198Y-75527112D01*
X162399197Y-75527111D01*
X162246061Y-75415851D01*
X162246056Y-75415848D01*
X162073134Y-75338857D01*
X162073129Y-75338855D01*
X161927328Y-75307865D01*
X161887973Y-75299500D01*
X161698681Y-75299500D01*
X161666224Y-75306398D01*
X161513524Y-75338855D01*
X161513519Y-75338857D01*
X161340597Y-75415848D01*
X161340596Y-75415849D01*
X161332383Y-75421817D01*
X161266577Y-75445298D01*
X161259496Y-75445500D01*
X160213994Y-75445500D01*
X160196022Y-75444191D01*
X160172093Y-75440686D01*
X160172089Y-75440685D01*
X160122463Y-75445028D01*
X160111655Y-75445500D01*
X160106053Y-75445500D01*
X160075080Y-75449120D01*
X160071495Y-75449486D01*
X159996391Y-75456057D01*
X159989317Y-75457518D01*
X159989306Y-75457465D01*
X159981825Y-75459124D01*
X159981838Y-75459176D01*
X159974811Y-75460841D01*
X159903931Y-75486637D01*
X159900531Y-75487819D01*
X159828964Y-75511536D01*
X159822417Y-75514589D01*
X159822394Y-75514541D01*
X159815507Y-75517875D01*
X159815531Y-75517922D01*
X159809076Y-75521163D01*
X159746067Y-75562604D01*
X159743030Y-75564539D01*
X159678846Y-75604130D01*
X159673179Y-75608611D01*
X159673146Y-75608569D01*
X159667214Y-75613401D01*
X159667248Y-75613442D01*
X159661712Y-75618087D01*
X159609944Y-75672956D01*
X159607433Y-75675541D01*
X157799314Y-77483660D01*
X157762074Y-77509256D01*
X157747274Y-77515845D01*
X157747267Y-77515849D01*
X157594129Y-77627111D01*
X157467466Y-77767785D01*
X157372821Y-77931715D01*
X157372818Y-77931722D01*
X157317576Y-78101741D01*
X157314326Y-78111744D01*
X157294540Y-78300000D01*
X152908577Y-78300000D01*
X152924185Y-78246846D01*
X152940814Y-78226209D01*
X157309954Y-73857068D01*
X157371275Y-73823585D01*
X157371493Y-73823537D01*
X157429803Y-73811144D01*
X157429807Y-73811142D01*
X157429808Y-73811142D01*
X157580840Y-73743897D01*
X157602730Y-73734151D01*
X157755871Y-73622888D01*
X157882533Y-73482216D01*
X157977179Y-73318284D01*
X158035674Y-73138256D01*
X158055460Y-72950000D01*
X158035674Y-72761744D01*
X157977179Y-72581716D01*
X157882533Y-72417784D01*
X157755871Y-72277112D01*
X157741053Y-72266346D01*
X157602734Y-72165851D01*
X157602729Y-72165848D01*
X157429807Y-72088857D01*
X157429802Y-72088855D01*
X157284001Y-72057865D01*
X157244646Y-72049500D01*
X157055354Y-72049500D01*
X157022897Y-72056398D01*
X156870197Y-72088855D01*
X156870192Y-72088857D01*
X156697270Y-72165848D01*
X156697265Y-72165851D01*
X156544129Y-72277111D01*
X156417466Y-72417785D01*
X156322821Y-72581715D01*
X156322819Y-72581719D01*
X156270201Y-72743661D01*
X156239951Y-72793023D01*
X151661742Y-77371232D01*
X151648113Y-77383011D01*
X151628707Y-77397459D01*
X151596674Y-77435633D01*
X151589387Y-77443586D01*
X151585420Y-77447554D01*
X151585418Y-77447556D01*
X151566089Y-77472001D01*
X151563815Y-77474793D01*
X151515334Y-77532571D01*
X151511366Y-77538605D01*
X151511322Y-77538576D01*
X151507209Y-77545031D01*
X151507254Y-77545059D01*
X151503462Y-77551206D01*
X151471581Y-77619572D01*
X151470012Y-77622812D01*
X151436175Y-77690191D01*
X151433704Y-77696979D01*
X151433655Y-77696961D01*
X151431141Y-77704193D01*
X151431191Y-77704210D01*
X151428920Y-77711062D01*
X151413671Y-77784911D01*
X151412891Y-77788430D01*
X151395499Y-77861816D01*
X151394661Y-77868987D01*
X151394607Y-77868980D01*
X151393830Y-77876596D01*
X151393883Y-77876601D01*
X151393253Y-77883790D01*
X151395448Y-77959193D01*
X151395500Y-77962800D01*
X151395500Y-83382243D01*
X151375815Y-83449282D01*
X151359181Y-83469924D01*
X147811742Y-87017362D01*
X147798113Y-87029141D01*
X147778707Y-87043589D01*
X147746674Y-87081763D01*
X147739387Y-87089716D01*
X147735420Y-87093684D01*
X147735418Y-87093686D01*
X147716089Y-87118131D01*
X147713815Y-87120923D01*
X147665334Y-87178701D01*
X147661366Y-87184735D01*
X147661322Y-87184706D01*
X147657209Y-87191161D01*
X147657254Y-87191189D01*
X147653462Y-87197336D01*
X147621581Y-87265702D01*
X147620012Y-87268942D01*
X147586175Y-87336321D01*
X147583704Y-87343109D01*
X147583655Y-87343091D01*
X147581141Y-87350323D01*
X147581191Y-87350340D01*
X147578920Y-87357192D01*
X147563671Y-87431041D01*
X147562891Y-87434560D01*
X147545499Y-87507946D01*
X147544661Y-87515117D01*
X147544607Y-87515110D01*
X147543830Y-87522726D01*
X147543883Y-87522731D01*
X147543253Y-87529920D01*
X147545448Y-87605323D01*
X147545500Y-87608930D01*
X147545500Y-89336000D01*
X147544191Y-89353969D01*
X147540684Y-89377908D01*
X119018016Y-89377908D01*
X119000500Y-83948413D01*
X119000500Y-82172870D01*
X129724500Y-82172870D01*
X129724501Y-82172876D01*
X129730908Y-82232483D01*
X129781202Y-82367328D01*
X129781206Y-82367335D01*
X129867452Y-82482544D01*
X129867455Y-82482547D01*
X129982664Y-82568793D01*
X129982671Y-82568797D01*
X130117517Y-82619091D01*
X130117516Y-82619091D01*
X130124444Y-82619835D01*
X130177127Y-82625500D01*
X131622872Y-82625499D01*
X131682483Y-82619091D01*
X131817331Y-82568796D01*
X131932546Y-82482546D01*
X132018796Y-82367331D01*
X132069091Y-82232483D01*
X132075500Y-82172873D01*
X132075499Y-80727128D01*
X132069091Y-80667517D01*
X132024472Y-80547888D01*
X132018797Y-80532671D01*
X132018793Y-80532664D01*
X131932547Y-80417455D01*
X131846494Y-80353035D01*
X131804624Y-80297101D01*
X131799640Y-80227409D01*
X131821852Y-80179042D01*
X131903284Y-80071208D01*
X132000348Y-79876280D01*
X132050505Y-79700000D01*
X131215686Y-79700000D01*
X131227641Y-79688045D01*
X131285165Y-79575148D01*
X131304986Y-79450000D01*
X131285165Y-79324852D01*
X131227641Y-79211955D01*
X131215686Y-79200000D01*
X132050505Y-79200000D01*
X132050505Y-79199999D01*
X132000348Y-79023719D01*
X131903284Y-78828791D01*
X131772054Y-78655014D01*
X131611131Y-78508314D01*
X131425987Y-78393677D01*
X131425985Y-78393676D01*
X131222931Y-78315013D01*
X131222921Y-78315010D01*
X131150001Y-78301378D01*
X131150000Y-78301379D01*
X131150000Y-79134314D01*
X131138045Y-79122359D01*
X131025148Y-79064835D01*
X130931481Y-79050000D01*
X130868519Y-79050000D01*
X130774852Y-79064835D01*
X130661955Y-79122359D01*
X130650000Y-79134314D01*
X130650000Y-78301379D01*
X130649998Y-78301378D01*
X130577078Y-78315010D01*
X130577068Y-78315013D01*
X130374014Y-78393676D01*
X130374012Y-78393677D01*
X130188869Y-78508314D01*
X130188868Y-78508314D01*
X130027945Y-78655014D01*
X129896715Y-78828791D01*
X129799651Y-79023719D01*
X129749494Y-79199999D01*
X129749495Y-79200000D01*
X130584314Y-79200000D01*
X130572359Y-79211955D01*
X130514835Y-79324852D01*
X130495014Y-79450000D01*
X130514835Y-79575148D01*
X130572359Y-79688045D01*
X130584314Y-79700000D01*
X129749495Y-79700000D01*
X129799651Y-79876280D01*
X129896715Y-80071208D01*
X129978147Y-80179042D01*
X130002839Y-80244404D01*
X129988274Y-80312738D01*
X129953505Y-80353035D01*
X129867452Y-80417455D01*
X129781206Y-80532664D01*
X129781202Y-80532671D01*
X129730908Y-80667517D01*
X129724501Y-80727116D01*
X129724501Y-80727123D01*
X129724500Y-80727135D01*
X129724500Y-82172870D01*
X119000500Y-82172870D01*
X119000500Y-69362887D01*
X132549500Y-69362887D01*
X132564317Y-69551151D01*
X132623126Y-69796110D01*
X132719533Y-70028859D01*
X132851160Y-70243653D01*
X132851161Y-70243656D01*
X132873764Y-70270120D01*
X133014776Y-70435224D01*
X133139523Y-70541768D01*
X133206343Y-70598838D01*
X133206345Y-70598838D01*
X133226661Y-70611288D01*
X133421140Y-70730466D01*
X133492271Y-70759929D01*
X133653889Y-70826873D01*
X133898852Y-70885683D01*
X134150000Y-70905449D01*
X134401148Y-70885683D01*
X134646111Y-70826873D01*
X134878859Y-70730466D01*
X135093659Y-70598836D01*
X135285224Y-70435224D01*
X135285229Y-70435217D01*
X135288663Y-70431784D01*
X135289797Y-70432918D01*
X135342397Y-70398556D01*
X135391477Y-70393979D01*
X135392516Y-70394090D01*
X135392517Y-70394091D01*
X135452127Y-70400500D01*
X137047872Y-70400499D01*
X137107483Y-70394091D01*
X137242331Y-70343796D01*
X137357546Y-70257546D01*
X137386849Y-70218402D01*
X137442781Y-70176531D01*
X137512473Y-70171547D01*
X137554426Y-70189226D01*
X137655033Y-70255636D01*
X137862004Y-70344100D01*
X137862007Y-70344101D01*
X137862012Y-70344103D01*
X138081463Y-70394191D01*
X138306330Y-70404290D01*
X138439854Y-70386202D01*
X138508925Y-70396709D01*
X138544177Y-70421399D01*
X140243964Y-72121185D01*
X140249098Y-72126638D01*
X140288417Y-72171020D01*
X140337219Y-72204705D01*
X140343238Y-72209134D01*
X140389895Y-72245688D01*
X140398866Y-72249725D01*
X140418411Y-72260748D01*
X140426518Y-72266344D01*
X140426519Y-72266344D01*
X140426520Y-72266345D01*
X140426522Y-72266346D01*
X140465640Y-72281181D01*
X140481943Y-72287364D01*
X140488842Y-72290221D01*
X140542915Y-72314557D01*
X140552596Y-72316331D01*
X140574218Y-72322359D01*
X140583418Y-72325848D01*
X140642268Y-72332993D01*
X140649636Y-72334114D01*
X140707972Y-72344805D01*
X140767139Y-72341226D01*
X140774626Y-72341000D01*
X143325374Y-72341000D01*
X143332861Y-72341226D01*
X143392026Y-72344805D01*
X143392026Y-72344804D01*
X143392028Y-72344805D01*
X143450336Y-72334119D01*
X143457730Y-72332993D01*
X143516582Y-72325848D01*
X143525788Y-72322356D01*
X143547403Y-72316330D01*
X143557085Y-72314557D01*
X143611161Y-72290218D01*
X143618017Y-72287378D01*
X143673482Y-72266344D01*
X143681580Y-72260754D01*
X143701139Y-72249722D01*
X143710105Y-72245688D01*
X143756766Y-72209130D01*
X143762798Y-72204692D01*
X143811583Y-72171020D01*
X143850917Y-72126619D01*
X143856003Y-72121217D01*
X144899902Y-71077319D01*
X144961225Y-71043834D01*
X144987583Y-71041000D01*
X165763634Y-71041000D01*
X165771121Y-71041226D01*
X165830286Y-71044805D01*
X165830286Y-71044804D01*
X165830288Y-71044805D01*
X165888596Y-71034119D01*
X165895990Y-71032993D01*
X165954842Y-71025848D01*
X165964048Y-71022356D01*
X165985663Y-71016330D01*
X165995345Y-71014557D01*
X166049421Y-70990218D01*
X166056277Y-70987378D01*
X166111742Y-70966344D01*
X166119840Y-70960754D01*
X166139399Y-70949722D01*
X166148365Y-70945688D01*
X166195020Y-70909134D01*
X166201057Y-70904693D01*
X166215186Y-70894941D01*
X166259841Y-70875703D01*
X166442282Y-70836925D01*
X166615209Y-70759932D01*
X166622783Y-70754429D01*
X168007699Y-70754429D01*
X168117812Y-70812221D01*
X168271075Y-70849998D01*
X168428925Y-70849998D01*
X168582185Y-70812222D01*
X168692297Y-70754429D01*
X169107699Y-70754429D01*
X169217812Y-70812221D01*
X169371075Y-70849998D01*
X169528925Y-70849998D01*
X169682185Y-70812222D01*
X169792297Y-70754429D01*
X170207699Y-70754429D01*
X170317812Y-70812221D01*
X170471075Y-70849998D01*
X170628925Y-70849998D01*
X170782185Y-70812222D01*
X170892299Y-70754428D01*
X170550001Y-70412130D01*
X170550000Y-70412130D01*
X170207699Y-70754428D01*
X170207699Y-70754429D01*
X169792297Y-70754429D01*
X169792299Y-70754428D01*
X169450001Y-70412130D01*
X169450000Y-70412130D01*
X169107699Y-70754428D01*
X169107699Y-70754429D01*
X168692297Y-70754429D01*
X168692299Y-70754428D01*
X168350001Y-70412130D01*
X168350000Y-70412130D01*
X168007699Y-70754428D01*
X168007699Y-70754429D01*
X166622783Y-70754429D01*
X166768350Y-70648669D01*
X166895012Y-70507997D01*
X166989658Y-70344065D01*
X167036468Y-70199998D01*
X167695226Y-70199998D01*
X167714253Y-70356697D01*
X167770222Y-70504281D01*
X167770225Y-70504286D01*
X167796096Y-70541768D01*
X167796097Y-70541768D01*
X168105376Y-70232490D01*
X168250000Y-70232490D01*
X168288197Y-70285063D01*
X168334162Y-70299998D01*
X168365838Y-70299998D01*
X168411803Y-70285063D01*
X168450000Y-70232490D01*
X168450000Y-70199998D01*
X168562132Y-70199998D01*
X168900000Y-70537866D01*
X169205376Y-70232490D01*
X169350000Y-70232490D01*
X169388197Y-70285063D01*
X169434162Y-70299998D01*
X169465838Y-70299998D01*
X169511803Y-70285063D01*
X169550000Y-70232490D01*
X169550000Y-70199998D01*
X169662132Y-70199998D01*
X170000000Y-70537866D01*
X170305376Y-70232490D01*
X170450000Y-70232490D01*
X170488197Y-70285063D01*
X170534162Y-70299998D01*
X170565838Y-70299998D01*
X170611803Y-70285063D01*
X170650000Y-70232490D01*
X170650000Y-70199999D01*
X170762132Y-70199999D01*
X171103901Y-70541768D01*
X171129773Y-70504288D01*
X171185747Y-70356695D01*
X171204773Y-70199998D01*
X171185747Y-70043300D01*
X171129773Y-69895707D01*
X171103901Y-69858227D01*
X171103901Y-69858226D01*
X170762132Y-70199997D01*
X170762132Y-70199999D01*
X170650000Y-70199999D01*
X170650000Y-70167506D01*
X170611803Y-70114933D01*
X170565838Y-70099998D01*
X170534162Y-70099998D01*
X170488197Y-70114933D01*
X170450000Y-70167506D01*
X170450000Y-70232490D01*
X170305376Y-70232490D01*
X170337868Y-70199998D01*
X170000000Y-69862130D01*
X169662132Y-70199998D01*
X169550000Y-70199998D01*
X169550000Y-70167506D01*
X169511803Y-70114933D01*
X169465838Y-70099998D01*
X169434162Y-70099998D01*
X169388197Y-70114933D01*
X169350000Y-70167506D01*
X169350000Y-70232490D01*
X169205376Y-70232490D01*
X169237868Y-70199998D01*
X168900000Y-69862130D01*
X168562132Y-70199998D01*
X168450000Y-70199998D01*
X168450000Y-70167506D01*
X168411803Y-70114933D01*
X168365838Y-70099998D01*
X168334162Y-70099998D01*
X168288197Y-70114933D01*
X168250000Y-70167506D01*
X168250000Y-70232490D01*
X168105376Y-70232490D01*
X168137868Y-70199998D01*
X167796096Y-69858226D01*
X167770227Y-69895705D01*
X167770224Y-69895711D01*
X167714253Y-70043299D01*
X167695226Y-70199998D01*
X167036468Y-70199998D01*
X167048153Y-70164037D01*
X167067939Y-69975781D01*
X167048153Y-69787525D01*
X167003467Y-69649998D01*
X168012132Y-69649998D01*
X168350000Y-69987866D01*
X168687868Y-69649998D01*
X169112132Y-69649998D01*
X169450000Y-69987866D01*
X169787868Y-69649998D01*
X170212132Y-69649998D01*
X170550000Y-69987866D01*
X170887868Y-69649998D01*
X170550000Y-69312130D01*
X170212132Y-69649998D01*
X169787868Y-69649998D01*
X169450000Y-69312130D01*
X169112132Y-69649998D01*
X168687868Y-69649998D01*
X168350000Y-69312130D01*
X168012132Y-69649998D01*
X167003467Y-69649998D01*
X166989658Y-69607497D01*
X166895012Y-69443565D01*
X166768350Y-69302893D01*
X166750519Y-69289938D01*
X166615213Y-69191632D01*
X166615208Y-69191629D01*
X166442286Y-69114638D01*
X166442281Y-69114636D01*
X166373412Y-69099998D01*
X167695226Y-69099998D01*
X167714253Y-69256697D01*
X167770222Y-69404281D01*
X167770225Y-69404286D01*
X167796096Y-69441768D01*
X167796097Y-69441768D01*
X168105376Y-69132490D01*
X168250000Y-69132490D01*
X168288197Y-69185063D01*
X168334162Y-69199998D01*
X168365838Y-69199998D01*
X168411803Y-69185063D01*
X168450000Y-69132490D01*
X168450000Y-69099998D01*
X168562132Y-69099998D01*
X168900000Y-69437866D01*
X169205376Y-69132490D01*
X169350000Y-69132490D01*
X169388197Y-69185063D01*
X169434162Y-69199998D01*
X169465838Y-69199998D01*
X169511803Y-69185063D01*
X169550000Y-69132490D01*
X169550000Y-69099998D01*
X169662132Y-69099998D01*
X170000000Y-69437866D01*
X170305376Y-69132490D01*
X170450000Y-69132490D01*
X170488197Y-69185063D01*
X170534162Y-69199998D01*
X170565838Y-69199998D01*
X170611803Y-69185063D01*
X170650000Y-69132490D01*
X170650000Y-69099999D01*
X170762132Y-69099999D01*
X171103901Y-69441768D01*
X171129773Y-69404288D01*
X171185747Y-69256695D01*
X171204773Y-69099998D01*
X171185747Y-68943300D01*
X171129773Y-68795707D01*
X171103901Y-68758227D01*
X171103901Y-68758226D01*
X170762132Y-69099997D01*
X170762132Y-69099999D01*
X170650000Y-69099999D01*
X170650000Y-69067506D01*
X170611803Y-69014933D01*
X170565838Y-68999998D01*
X170534162Y-68999998D01*
X170488197Y-69014933D01*
X170450000Y-69067506D01*
X170450000Y-69132490D01*
X170305376Y-69132490D01*
X170337868Y-69099998D01*
X170000000Y-68762130D01*
X169662132Y-69099998D01*
X169550000Y-69099998D01*
X169550000Y-69067506D01*
X169511803Y-69014933D01*
X169465838Y-68999998D01*
X169434162Y-68999998D01*
X169388197Y-69014933D01*
X169350000Y-69067506D01*
X169350000Y-69132490D01*
X169205376Y-69132490D01*
X169237868Y-69099998D01*
X168900000Y-68762130D01*
X168562132Y-69099998D01*
X168450000Y-69099998D01*
X168450000Y-69067506D01*
X168411803Y-69014933D01*
X168365838Y-68999998D01*
X168334162Y-68999998D01*
X168288197Y-69014933D01*
X168250000Y-69067506D01*
X168250000Y-69132490D01*
X168105376Y-69132490D01*
X168137868Y-69099998D01*
X167796096Y-68758226D01*
X167770227Y-68795705D01*
X167770224Y-68795711D01*
X167714253Y-68943299D01*
X167695226Y-69099998D01*
X166373412Y-69099998D01*
X166296480Y-69083646D01*
X166257125Y-69075281D01*
X166067833Y-69075281D01*
X166035376Y-69082179D01*
X165882676Y-69114636D01*
X165882671Y-69114638D01*
X165709749Y-69191629D01*
X165709744Y-69191632D01*
X165556608Y-69302892D01*
X165429944Y-69443566D01*
X165341360Y-69597000D01*
X165290793Y-69645216D01*
X165233973Y-69659000D01*
X144674637Y-69659000D01*
X144667149Y-69658774D01*
X144607973Y-69655194D01*
X144607970Y-69655194D01*
X144549652Y-69665881D01*
X144542249Y-69667008D01*
X144483419Y-69674151D01*
X144483416Y-69674152D01*
X144474217Y-69677641D01*
X144452609Y-69683664D01*
X144442921Y-69685439D01*
X144388854Y-69709772D01*
X144381939Y-69712636D01*
X144326518Y-69733655D01*
X144318408Y-69739253D01*
X144298873Y-69750271D01*
X144289896Y-69754311D01*
X144289895Y-69754312D01*
X144243237Y-69790865D01*
X144237208Y-69795301D01*
X144188418Y-69828979D01*
X144188410Y-69828986D01*
X144149097Y-69873360D01*
X144143965Y-69878812D01*
X144070334Y-69952443D01*
X144009011Y-69985928D01*
X143939319Y-69980944D01*
X143883386Y-69939072D01*
X143858969Y-69873608D01*
X143868093Y-69817307D01*
X143869299Y-69814397D01*
X143876873Y-69796111D01*
X143935683Y-69551148D01*
X143950500Y-69362882D01*
X143950500Y-68549998D01*
X168012132Y-68549998D01*
X168350000Y-68887866D01*
X168687868Y-68549998D01*
X169112132Y-68549998D01*
X169450000Y-68887866D01*
X169787868Y-68549998D01*
X170212132Y-68549998D01*
X170550000Y-68887866D01*
X170887868Y-68549998D01*
X170550000Y-68212130D01*
X170212132Y-68549998D01*
X169787868Y-68549998D01*
X169450000Y-68212130D01*
X169112132Y-68549998D01*
X168687868Y-68549998D01*
X168350000Y-68212130D01*
X168012132Y-68549998D01*
X143950500Y-68549998D01*
X143950500Y-67999998D01*
X167695226Y-67999998D01*
X167714253Y-68156697D01*
X167770222Y-68304281D01*
X167770225Y-68304286D01*
X167796096Y-68341768D01*
X167796097Y-68341768D01*
X168105376Y-68032490D01*
X168250000Y-68032490D01*
X168288197Y-68085063D01*
X168334162Y-68099998D01*
X168365838Y-68099998D01*
X168411803Y-68085063D01*
X168450000Y-68032490D01*
X168450000Y-67999998D01*
X168562132Y-67999998D01*
X168900000Y-68337866D01*
X169205376Y-68032490D01*
X169350000Y-68032490D01*
X169388197Y-68085063D01*
X169434162Y-68099998D01*
X169465838Y-68099998D01*
X169511803Y-68085063D01*
X169550000Y-68032490D01*
X169550000Y-67999998D01*
X169662132Y-67999998D01*
X170000000Y-68337866D01*
X170305376Y-68032490D01*
X170450000Y-68032490D01*
X170488197Y-68085063D01*
X170534162Y-68099998D01*
X170565838Y-68099998D01*
X170611803Y-68085063D01*
X170650000Y-68032490D01*
X170650000Y-67999999D01*
X170762132Y-67999999D01*
X171103901Y-68341768D01*
X171129773Y-68304288D01*
X171185747Y-68156695D01*
X171204773Y-67999998D01*
X171185747Y-67843300D01*
X171129773Y-67695707D01*
X171103901Y-67658227D01*
X171103901Y-67658226D01*
X170762132Y-67999997D01*
X170762132Y-67999999D01*
X170650000Y-67999999D01*
X170650000Y-67967506D01*
X170611803Y-67914933D01*
X170565838Y-67899998D01*
X170534162Y-67899998D01*
X170488197Y-67914933D01*
X170450000Y-67967506D01*
X170450000Y-68032490D01*
X170305376Y-68032490D01*
X170337868Y-67999998D01*
X170000000Y-67662130D01*
X169662132Y-67999998D01*
X169550000Y-67999998D01*
X169550000Y-67967506D01*
X169511803Y-67914933D01*
X169465838Y-67899998D01*
X169434162Y-67899998D01*
X169388197Y-67914933D01*
X169350000Y-67967506D01*
X169350000Y-68032490D01*
X169205376Y-68032490D01*
X169237868Y-67999998D01*
X168900000Y-67662130D01*
X168562132Y-67999998D01*
X168450000Y-67999998D01*
X168450000Y-67967506D01*
X168411803Y-67914933D01*
X168365838Y-67899998D01*
X168334162Y-67899998D01*
X168288197Y-67914933D01*
X168250000Y-67967506D01*
X168250000Y-68032490D01*
X168105376Y-68032490D01*
X168137868Y-67999998D01*
X167796096Y-67658226D01*
X167770227Y-67695705D01*
X167770224Y-67695711D01*
X167714253Y-67843299D01*
X167695226Y-67999998D01*
X143950500Y-67999998D01*
X143950500Y-67937118D01*
X143935683Y-67748852D01*
X143876873Y-67503889D01*
X143852715Y-67445566D01*
X168007700Y-67445566D01*
X168350000Y-67787866D01*
X168350001Y-67787866D01*
X168692298Y-67445566D01*
X169107700Y-67445566D01*
X169450000Y-67787866D01*
X169450001Y-67787866D01*
X169792298Y-67445566D01*
X170207700Y-67445566D01*
X170550000Y-67787866D01*
X170550001Y-67787866D01*
X170892299Y-67445565D01*
X170782183Y-67387773D01*
X170628925Y-67349998D01*
X170471075Y-67349998D01*
X170317815Y-67387773D01*
X170207700Y-67445566D01*
X169792298Y-67445566D01*
X169792299Y-67445565D01*
X169682183Y-67387773D01*
X169528925Y-67349998D01*
X169371075Y-67349998D01*
X169217815Y-67387773D01*
X169107700Y-67445566D01*
X168692298Y-67445566D01*
X168692299Y-67445565D01*
X168582183Y-67387773D01*
X168428925Y-67349998D01*
X168271075Y-67349998D01*
X168117815Y-67387773D01*
X168007700Y-67445566D01*
X143852715Y-67445566D01*
X143852715Y-67445565D01*
X143780466Y-67271140D01*
X143648839Y-67056346D01*
X143648838Y-67056343D01*
X143572604Y-66967085D01*
X143485224Y-66864776D01*
X143343343Y-66743598D01*
X143293656Y-66701161D01*
X143293653Y-66701160D01*
X143078859Y-66569533D01*
X142846110Y-66473126D01*
X142601151Y-66414317D01*
X142350000Y-66394551D01*
X142098848Y-66414317D01*
X141853889Y-66473126D01*
X141621140Y-66569533D01*
X141406346Y-66701160D01*
X141406343Y-66701161D01*
X141214776Y-66864776D01*
X141054198Y-67052788D01*
X140995691Y-67090981D01*
X140925823Y-67091479D01*
X140891597Y-67075743D01*
X140844733Y-67044808D01*
X140637830Y-66956375D01*
X140637823Y-66956373D01*
X140500000Y-66924915D01*
X140500000Y-68334314D01*
X140488045Y-68322359D01*
X140375148Y-68264835D01*
X140281481Y-68250000D01*
X140218519Y-68250000D01*
X140124852Y-68264835D01*
X140011955Y-68322359D01*
X140000000Y-68334314D01*
X140000000Y-66922449D01*
X139999999Y-66922449D01*
X139970721Y-66926415D01*
X139756731Y-66995945D01*
X139558598Y-67102565D01*
X139558595Y-67102567D01*
X139382682Y-67242852D01*
X139344238Y-67286856D01*
X139285306Y-67324390D01*
X139215437Y-67324105D01*
X139165165Y-67294898D01*
X139111873Y-67243946D01*
X139032825Y-67168368D01*
X139032823Y-67168366D01*
X138844966Y-67044363D01*
X138637995Y-66955899D01*
X138637982Y-66955895D01*
X138418542Y-66905810D01*
X138418538Y-66905809D01*
X138418537Y-66905809D01*
X138418536Y-66905808D01*
X138418531Y-66905808D01*
X138193674Y-66895710D01*
X138193673Y-66895710D01*
X138193670Y-66895710D01*
X137970613Y-66925925D01*
X137970610Y-66925925D01*
X137970609Y-66925926D01*
X137756534Y-66995483D01*
X137558311Y-67102152D01*
X137553669Y-67105217D01*
X137552614Y-67103619D01*
X137495817Y-67126788D01*
X137427126Y-67114012D01*
X137383960Y-67077739D01*
X137376175Y-67067340D01*
X137357546Y-67042454D01*
X137357545Y-67042453D01*
X137357544Y-67042452D01*
X137242335Y-66956206D01*
X137242328Y-66956202D01*
X137107482Y-66905908D01*
X137107483Y-66905908D01*
X137047883Y-66899501D01*
X137047881Y-66899500D01*
X137047873Y-66899500D01*
X137047864Y-66899500D01*
X135452129Y-66899500D01*
X135452118Y-66899501D01*
X135391472Y-66906020D01*
X135322713Y-66893612D01*
X135289368Y-66867521D01*
X135288669Y-66868221D01*
X135285227Y-66864779D01*
X135285225Y-66864777D01*
X135285224Y-66864776D01*
X135178823Y-66773901D01*
X135093656Y-66701161D01*
X135093653Y-66701160D01*
X134878859Y-66569533D01*
X134646110Y-66473126D01*
X134401151Y-66414317D01*
X134150000Y-66394551D01*
X133898848Y-66414317D01*
X133653889Y-66473126D01*
X133421140Y-66569533D01*
X133206346Y-66701160D01*
X133206343Y-66701161D01*
X133014776Y-66864776D01*
X132851161Y-67056343D01*
X132851160Y-67056346D01*
X132719533Y-67271140D01*
X132623126Y-67503889D01*
X132564317Y-67748848D01*
X132549500Y-67937112D01*
X132549500Y-69362887D01*
X119000500Y-69362887D01*
X119000500Y-68830014D01*
X119020185Y-68762975D01*
X119072989Y-68717220D01*
X119142147Y-68707276D01*
X119179103Y-68718684D01*
X119330729Y-68793060D01*
X119527715Y-68844063D01*
X119730936Y-68854369D01*
X119932071Y-68823556D01*
X120122887Y-68752886D01*
X120295571Y-68645252D01*
X120443053Y-68505059D01*
X120559295Y-68338049D01*
X120639540Y-68151058D01*
X120680500Y-67951741D01*
X120680500Y-67900743D01*
X127319500Y-67900743D01*
X127334925Y-68052439D01*
X127395837Y-68246579D01*
X127395844Y-68246594D01*
X127494589Y-68424499D01*
X127494592Y-68424504D01*
X127627132Y-68578893D01*
X127627134Y-68578895D01*
X127788037Y-68703445D01*
X127788038Y-68703445D01*
X127788042Y-68703448D01*
X127970729Y-68793060D01*
X128167715Y-68844063D01*
X128370936Y-68854369D01*
X128572071Y-68823556D01*
X128762887Y-68752886D01*
X128935571Y-68645252D01*
X129083053Y-68505059D01*
X129199295Y-68338049D01*
X129279540Y-68151058D01*
X129320500Y-67951741D01*
X129320500Y-66799258D01*
X129319520Y-66789614D01*
X129305074Y-66647560D01*
X129244162Y-66453420D01*
X129244160Y-66453416D01*
X129244159Y-66453412D01*
X129145409Y-66275498D01*
X129145408Y-66275497D01*
X129145407Y-66275495D01*
X129012867Y-66121106D01*
X129012865Y-66121104D01*
X128851962Y-65996554D01*
X128851959Y-65996553D01*
X128851958Y-65996552D01*
X128669271Y-65906940D01*
X128472285Y-65855937D01*
X128472287Y-65855937D01*
X128336804Y-65849066D01*
X128269064Y-65845631D01*
X128269063Y-65845631D01*
X128269061Y-65845631D01*
X128067936Y-65876442D01*
X128067924Y-65876445D01*
X127877118Y-65947111D01*
X127877111Y-65947115D01*
X127704432Y-66054745D01*
X127704427Y-66054749D01*
X127556949Y-66194938D01*
X127556948Y-66194940D01*
X127440705Y-66361949D01*
X127360459Y-66548943D01*
X127319500Y-66748258D01*
X127319500Y-67900743D01*
X120680500Y-67900743D01*
X120680500Y-66799258D01*
X120679520Y-66789614D01*
X120665074Y-66647560D01*
X120604162Y-66453420D01*
X120604160Y-66453416D01*
X120604159Y-66453412D01*
X120505409Y-66275498D01*
X120505408Y-66275497D01*
X120505407Y-66275495D01*
X120372867Y-66121106D01*
X120372865Y-66121104D01*
X120211962Y-65996554D01*
X120211959Y-65996553D01*
X120211958Y-65996552D01*
X120029271Y-65906940D01*
X119832285Y-65855937D01*
X119832287Y-65855937D01*
X119696804Y-65849066D01*
X119629064Y-65845631D01*
X119629063Y-65845631D01*
X119629061Y-65845631D01*
X119427936Y-65876442D01*
X119427924Y-65876445D01*
X119237118Y-65947111D01*
X119237111Y-65947115D01*
X119210562Y-65963663D01*
X119190441Y-65976205D01*
X119190091Y-65976423D01*
X119122785Y-65995179D01*
X119056025Y-65974569D01*
X119011004Y-65921138D01*
X119000500Y-65871191D01*
X119000500Y-65030014D01*
X119020185Y-64962975D01*
X119072989Y-64917220D01*
X119142147Y-64907276D01*
X119179103Y-64918684D01*
X119330729Y-64993060D01*
X119527715Y-65044063D01*
X119730936Y-65054369D01*
X119932071Y-65023556D01*
X120122887Y-64952886D01*
X120295571Y-64845252D01*
X120443053Y-64705059D01*
X120559295Y-64538049D01*
X120639540Y-64351058D01*
X120680500Y-64151741D01*
X120680500Y-63075648D01*
X120700185Y-63008609D01*
X120752989Y-62962854D01*
X120804547Y-62951648D01*
X127195551Y-62954268D01*
G37*
%TD.AperFunction*%
%TA.AperFunction,Conductor*%
G36*
X191450000Y-66850000D02*
G01*
X192097828Y-66850000D01*
X192097836Y-66849999D01*
X192119424Y-66847678D01*
X192188184Y-66860081D01*
X192239323Y-66907690D01*
X192256604Y-66975389D01*
X192234541Y-67041684D01*
X192220364Y-67058648D01*
X191416208Y-67862803D01*
X191403951Y-67872624D01*
X191404134Y-67872845D01*
X191398122Y-67877818D01*
X191352098Y-67926827D01*
X191349391Y-67929620D01*
X191329889Y-67949121D01*
X191329875Y-67949138D01*
X191327407Y-67952319D01*
X191319843Y-67961174D01*
X191289937Y-67993022D01*
X191289936Y-67993024D01*
X191280284Y-68010580D01*
X191269610Y-68026830D01*
X191257329Y-68042665D01*
X191257324Y-68042672D01*
X191239975Y-68082762D01*
X191234838Y-68093248D01*
X191213803Y-68131510D01*
X191208822Y-68150911D01*
X191202521Y-68169314D01*
X191194562Y-68187706D01*
X191194561Y-68187709D01*
X191187728Y-68230847D01*
X191185360Y-68242278D01*
X191174501Y-68284575D01*
X191174500Y-68284586D01*
X191174500Y-68304620D01*
X191172973Y-68324019D01*
X191169840Y-68343798D01*
X191169840Y-68343799D01*
X191173950Y-68387278D01*
X191174500Y-68398947D01*
X191174500Y-68768832D01*
X191166227Y-68797003D01*
X191172477Y-68809414D01*
X191174500Y-68831721D01*
X191174500Y-72472168D01*
X191154815Y-72539207D01*
X191102011Y-72584962D01*
X191076281Y-72593458D01*
X190920197Y-72626634D01*
X190920192Y-72626636D01*
X190747270Y-72703627D01*
X190747265Y-72703630D01*
X190594129Y-72814890D01*
X190467466Y-72955564D01*
X190372821Y-73119494D01*
X190372818Y-73119501D01*
X190322759Y-73273569D01*
X190314326Y-73299523D01*
X190294540Y-73487779D01*
X190314326Y-73676035D01*
X190314327Y-73676038D01*
X190372818Y-73856056D01*
X190372821Y-73856063D01*
X190467467Y-74019995D01*
X190555199Y-74117431D01*
X190594129Y-74160667D01*
X190747265Y-74271927D01*
X190747270Y-74271930D01*
X190920191Y-74348921D01*
X190920193Y-74348921D01*
X190920197Y-74348923D01*
X191017760Y-74369660D01*
X191079238Y-74402850D01*
X191113015Y-74464013D01*
X191113213Y-74505108D01*
X191115004Y-74505297D01*
X191114512Y-74509972D01*
X191113252Y-74513032D01*
X191113270Y-74516713D01*
X191112979Y-74518083D01*
X191111318Y-74517730D01*
X191087919Y-74574583D01*
X191030616Y-74614560D01*
X191016975Y-74618284D01*
X190920196Y-74638856D01*
X190920192Y-74638857D01*
X190747270Y-74715848D01*
X190747265Y-74715851D01*
X190594129Y-74827111D01*
X190467466Y-74967785D01*
X190372821Y-75131715D01*
X190372818Y-75131722D01*
X190318304Y-75299500D01*
X190314326Y-75311744D01*
X190294540Y-75500000D01*
X190314326Y-75688256D01*
X190314327Y-75688259D01*
X190372818Y-75868277D01*
X190372821Y-75868284D01*
X190467467Y-76032216D01*
X190544909Y-76118224D01*
X190594129Y-76172888D01*
X190747265Y-76284148D01*
X190747270Y-76284151D01*
X190920192Y-76361142D01*
X190920197Y-76361144D01*
X191105354Y-76400500D01*
X191105355Y-76400500D01*
X191294646Y-76400500D01*
X191352249Y-76388256D01*
X191411268Y-76375711D01*
X191480935Y-76381027D01*
X191524730Y-76409320D01*
X191938181Y-76822771D01*
X191971666Y-76884094D01*
X191974500Y-76910452D01*
X191974500Y-78390547D01*
X191954815Y-78457586D01*
X191902011Y-78503341D01*
X191832853Y-78513285D01*
X191769297Y-78484260D01*
X191762819Y-78478228D01*
X189420904Y-76136313D01*
X189411081Y-76124051D01*
X189410860Y-76124235D01*
X189405887Y-76118223D01*
X189356877Y-76072200D01*
X189354078Y-76069487D01*
X189334578Y-76049986D01*
X189334572Y-76049981D01*
X189331387Y-76047510D01*
X189322535Y-76039949D01*
X189290683Y-76010039D01*
X189290681Y-76010037D01*
X189290678Y-76010036D01*
X189273130Y-76000389D01*
X189256864Y-75989705D01*
X189241033Y-75977425D01*
X189200950Y-75960079D01*
X189190464Y-75954942D01*
X189152195Y-75933904D01*
X189152193Y-75933903D01*
X189132794Y-75928923D01*
X189114382Y-75922619D01*
X189095999Y-75914663D01*
X189095993Y-75914661D01*
X189052861Y-75907830D01*
X189041423Y-75905462D01*
X188999121Y-75894601D01*
X188999120Y-75894601D01*
X188979085Y-75894601D01*
X188959687Y-75893074D01*
X188952263Y-75891898D01*
X188939906Y-75889941D01*
X188939905Y-75889941D01*
X188896426Y-75894051D01*
X188884757Y-75894601D01*
X188423849Y-75894601D01*
X188356810Y-75874916D01*
X188331701Y-75853575D01*
X188325974Y-75847215D01*
X188325970Y-75847211D01*
X188172835Y-75735952D01*
X188172830Y-75735949D01*
X187999908Y-75658958D01*
X187999903Y-75658956D01*
X187854102Y-75627966D01*
X187814747Y-75619601D01*
X187625455Y-75619601D01*
X187592998Y-75626499D01*
X187440298Y-75658956D01*
X187440293Y-75658958D01*
X187267371Y-75735949D01*
X187267366Y-75735952D01*
X187114233Y-75847210D01*
X187114230Y-75847212D01*
X187114230Y-75847213D01*
X187070648Y-75895614D01*
X187011163Y-75932262D01*
X186941306Y-75930931D01*
X186883258Y-75892044D01*
X186855448Y-75827947D01*
X186854500Y-75812641D01*
X186854500Y-69663992D01*
X186855809Y-69646022D01*
X186858750Y-69625942D01*
X186859314Y-69622093D01*
X186858894Y-69617298D01*
X186854972Y-69572463D01*
X186854500Y-69561655D01*
X186854500Y-69556066D01*
X186854499Y-69556050D01*
X186850877Y-69525063D01*
X186850515Y-69521524D01*
X186845977Y-69469651D01*
X186843313Y-69439190D01*
X186846023Y-69438952D01*
X186850692Y-69381863D01*
X186893132Y-69326359D01*
X186958842Y-69302611D01*
X187026960Y-69318158D01*
X187054107Y-69338698D01*
X187899197Y-70183788D01*
X187909022Y-70196051D01*
X187909243Y-70195869D01*
X187914211Y-70201874D01*
X187914213Y-70201876D01*
X187914214Y-70201877D01*
X187958704Y-70243656D01*
X187963222Y-70247899D01*
X187966021Y-70250612D01*
X187985522Y-70270114D01*
X187985526Y-70270117D01*
X187985529Y-70270120D01*
X187988702Y-70272581D01*
X187997574Y-70280159D01*
X188029418Y-70310062D01*
X188046976Y-70319714D01*
X188063235Y-70330395D01*
X188079064Y-70342673D01*
X188119155Y-70360021D01*
X188129626Y-70365151D01*
X188152180Y-70377550D01*
X188167902Y-70386194D01*
X188167904Y-70386195D01*
X188167908Y-70386197D01*
X188187316Y-70391180D01*
X188205719Y-70397481D01*
X188224101Y-70405436D01*
X188224102Y-70405436D01*
X188224104Y-70405437D01*
X188267250Y-70412270D01*
X188278672Y-70414636D01*
X188320981Y-70425500D01*
X188341016Y-70425500D01*
X188360414Y-70427026D01*
X188380194Y-70430159D01*
X188380195Y-70430160D01*
X188380195Y-70430159D01*
X188380196Y-70430160D01*
X188423675Y-70426050D01*
X188435344Y-70425500D01*
X189296252Y-70425500D01*
X189363291Y-70445185D01*
X189388400Y-70466526D01*
X189394126Y-70472885D01*
X189394130Y-70472889D01*
X189547265Y-70584148D01*
X189547270Y-70584151D01*
X189720192Y-70661142D01*
X189720197Y-70661144D01*
X189905354Y-70700500D01*
X189905355Y-70700500D01*
X190094644Y-70700500D01*
X190094646Y-70700500D01*
X190279803Y-70661144D01*
X190452730Y-70584151D01*
X190605871Y-70472888D01*
X190732533Y-70332216D01*
X190827179Y-70168284D01*
X190885674Y-69988256D01*
X190905460Y-69800000D01*
X190885674Y-69611744D01*
X190827179Y-69431716D01*
X190798838Y-69382629D01*
X190782365Y-69314731D01*
X190798837Y-69258632D01*
X190850841Y-69168561D01*
X190909336Y-68988533D01*
X190927179Y-68818758D01*
X190932635Y-68805497D01*
X190931523Y-68803767D01*
X190927179Y-68781793D01*
X190925817Y-68768832D01*
X190909336Y-68612021D01*
X190850841Y-68431993D01*
X190756195Y-68268061D01*
X190629533Y-68127389D01*
X190629532Y-68127388D01*
X190476396Y-68016128D01*
X190476391Y-68016125D01*
X190303469Y-67939134D01*
X190303464Y-67939132D01*
X190141784Y-67904767D01*
X190118308Y-67899777D01*
X189929016Y-67899777D01*
X189905540Y-67904767D01*
X189743859Y-67939132D01*
X189614040Y-67996932D01*
X189544790Y-68006216D01*
X189481514Y-67976588D01*
X189475924Y-67971333D01*
X188571931Y-67067340D01*
X188538446Y-67006017D01*
X188543430Y-66936325D01*
X188585302Y-66880392D01*
X188650766Y-66855975D01*
X188659612Y-66855659D01*
X188660001Y-66855659D01*
X188724681Y-66850000D01*
X188895408Y-66835063D01*
X189123663Y-66773903D01*
X189337830Y-66674035D01*
X189531401Y-66538495D01*
X189653717Y-66416178D01*
X189715036Y-66382696D01*
X189784728Y-66387680D01*
X189840662Y-66429551D01*
X189857577Y-66460528D01*
X189906646Y-66592088D01*
X189906649Y-66592093D01*
X189992809Y-66707187D01*
X189992812Y-66707190D01*
X190107906Y-66793350D01*
X190107913Y-66793354D01*
X190242620Y-66843596D01*
X190242627Y-66843598D01*
X190302155Y-66849999D01*
X190302172Y-66850000D01*
X190950000Y-66850000D01*
X190950000Y-65935501D01*
X191057685Y-65984680D01*
X191164237Y-66000000D01*
X191235763Y-66000000D01*
X191342315Y-65984680D01*
X191450000Y-65935501D01*
X191450000Y-66850000D01*
G37*
%TD.AperFunction*%
%TA.AperFunction,Conductor*%
G36*
X238875551Y-63000039D02*
G01*
X238942582Y-63019751D01*
X238988315Y-63072574D01*
X238999500Y-63124039D01*
X238999500Y-76875500D01*
X238979815Y-76942539D01*
X238927011Y-76988294D01*
X238875500Y-76999500D01*
X220028500Y-76999500D01*
X220022221Y-76999341D01*
X219991787Y-76997797D01*
X219949065Y-76995631D01*
X219949058Y-76995631D01*
X219876676Y-77006719D01*
X219870448Y-77007513D01*
X219797566Y-77014925D01*
X219797557Y-77014927D01*
X219782187Y-77019749D01*
X219763858Y-77024003D01*
X219747929Y-77026444D01*
X219747926Y-77026445D01*
X219679245Y-77051880D01*
X219673305Y-77053911D01*
X219603412Y-77075840D01*
X219589322Y-77083661D01*
X219572220Y-77091518D01*
X219557118Y-77097111D01*
X219557108Y-77097116D01*
X219494959Y-77135854D01*
X219489546Y-77139040D01*
X219425506Y-77174585D01*
X219425499Y-77174590D01*
X219413278Y-77185081D01*
X219398114Y-77196216D01*
X219384430Y-77204746D01*
X219384427Y-77204749D01*
X219331338Y-77255213D01*
X219326679Y-77259422D01*
X219271109Y-77307129D01*
X219271102Y-77307136D01*
X219261243Y-77319872D01*
X219248631Y-77333832D01*
X219236949Y-77344938D01*
X219236948Y-77344939D01*
X219195111Y-77405046D01*
X219191396Y-77410106D01*
X219146551Y-77468042D01*
X219145616Y-77469949D01*
X219144823Y-77470813D01*
X219143226Y-77473377D01*
X219142747Y-77473079D01*
X219098414Y-77521463D01*
X219030854Y-77539280D01*
X218964387Y-77517744D01*
X218921912Y-77467733D01*
X218907206Y-77436197D01*
X218854035Y-77322171D01*
X218852426Y-77319872D01*
X218718494Y-77128597D01*
X218551402Y-76961506D01*
X218551395Y-76961501D01*
X218357834Y-76825967D01*
X218357830Y-76825965D01*
X218195418Y-76750231D01*
X218143663Y-76726097D01*
X218143659Y-76726096D01*
X218143655Y-76726094D01*
X217915413Y-76664938D01*
X217915403Y-76664936D01*
X217680001Y-76644341D01*
X217679999Y-76644341D01*
X217444590Y-76664937D01*
X217444589Y-76664937D01*
X217344124Y-76691855D01*
X217274274Y-76690191D01*
X217224352Y-76659761D01*
X209980803Y-69416212D01*
X209970980Y-69403950D01*
X209970759Y-69404134D01*
X209965786Y-69398122D01*
X209916776Y-69352099D01*
X209913977Y-69349386D01*
X209894477Y-69329885D01*
X209894471Y-69329880D01*
X209891286Y-69327409D01*
X209882434Y-69319848D01*
X209850582Y-69289938D01*
X209850580Y-69289936D01*
X209850577Y-69289935D01*
X209833029Y-69280288D01*
X209816763Y-69269604D01*
X209807665Y-69262547D01*
X209800936Y-69257327D01*
X209800935Y-69257326D01*
X209800932Y-69257324D01*
X209760849Y-69239978D01*
X209750363Y-69234841D01*
X209712094Y-69213803D01*
X209712092Y-69213802D01*
X209692693Y-69208822D01*
X209674281Y-69202518D01*
X209655898Y-69194562D01*
X209655892Y-69194560D01*
X209612760Y-69187729D01*
X209601322Y-69185361D01*
X209559020Y-69174500D01*
X209559019Y-69174500D01*
X209538984Y-69174500D01*
X209519586Y-69172973D01*
X209512162Y-69171797D01*
X209499805Y-69169840D01*
X209499804Y-69169840D01*
X209456325Y-69173950D01*
X209444656Y-69174500D01*
X199037929Y-69174500D01*
X198970890Y-69154815D01*
X198925135Y-69102011D01*
X198920001Y-69088826D01*
X198887414Y-68988533D01*
X198877028Y-68956568D01*
X198877025Y-68956562D01*
X198782380Y-68792631D01*
X198655718Y-68651959D01*
X198652280Y-68649461D01*
X198502581Y-68540698D01*
X198502576Y-68540695D01*
X198329654Y-68463704D01*
X198329649Y-68463702D01*
X198180460Y-68431992D01*
X198144493Y-68424347D01*
X197955201Y-68424347D01*
X197922744Y-68431245D01*
X197770044Y-68463702D01*
X197770039Y-68463704D01*
X197597117Y-68540695D01*
X197597112Y-68540698D01*
X197443976Y-68651958D01*
X197317313Y-68792632D01*
X197222668Y-68956562D01*
X197222665Y-68956569D01*
X197164174Y-69136587D01*
X197164173Y-69136591D01*
X197144387Y-69324847D01*
X197164173Y-69513103D01*
X197164174Y-69513106D01*
X197222665Y-69693124D01*
X197222668Y-69693131D01*
X197317314Y-69857063D01*
X197428857Y-69980944D01*
X197443976Y-69997735D01*
X197597112Y-70108995D01*
X197597117Y-70108998D01*
X197770039Y-70185989D01*
X197770044Y-70185991D01*
X197955201Y-70225347D01*
X198014393Y-70225347D01*
X198081432Y-70245032D01*
X198102074Y-70261666D01*
X198110522Y-70270114D01*
X198110526Y-70270117D01*
X198110529Y-70270120D01*
X198113702Y-70272581D01*
X198122574Y-70280159D01*
X198154418Y-70310062D01*
X198171976Y-70319714D01*
X198188233Y-70330393D01*
X198204064Y-70342673D01*
X198233803Y-70355542D01*
X198244152Y-70360021D01*
X198254641Y-70365160D01*
X198270136Y-70373678D01*
X198292908Y-70386197D01*
X198305523Y-70389435D01*
X198312305Y-70391177D01*
X198330719Y-70397481D01*
X198349104Y-70405438D01*
X198392261Y-70412273D01*
X198403689Y-70414641D01*
X198407107Y-70415518D01*
X198407474Y-70415613D01*
X198467505Y-70451362D01*
X198498678Y-70513892D01*
X198499934Y-70548670D01*
X198494662Y-70598836D01*
X198494540Y-70600000D01*
X198514326Y-70788256D01*
X198514327Y-70788259D01*
X198572818Y-70968277D01*
X198572821Y-70968284D01*
X198667467Y-71132216D01*
X198769185Y-71245185D01*
X198794129Y-71272888D01*
X198947265Y-71384148D01*
X198947270Y-71384151D01*
X199120192Y-71461142D01*
X199120197Y-71461144D01*
X199305354Y-71500500D01*
X199305355Y-71500500D01*
X199494644Y-71500500D01*
X199494646Y-71500500D01*
X199679803Y-71461144D01*
X199852730Y-71384151D01*
X200005871Y-71272888D01*
X200008788Y-71269647D01*
X200011600Y-71266526D01*
X200071087Y-71229879D01*
X200103748Y-71225500D01*
X207429548Y-71225500D01*
X207496587Y-71245185D01*
X207517229Y-71261819D01*
X212688069Y-76432660D01*
X212721554Y-76493983D01*
X212716570Y-76563675D01*
X212674698Y-76619608D01*
X212609234Y-76644025D01*
X212600388Y-76644341D01*
X212599999Y-76644341D01*
X212364596Y-76664936D01*
X212364586Y-76664938D01*
X212264126Y-76691856D01*
X212194276Y-76690193D01*
X212144352Y-76659762D01*
X211392420Y-75907830D01*
X210600803Y-75116212D01*
X210590980Y-75103950D01*
X210590759Y-75104134D01*
X210585786Y-75098122D01*
X210536776Y-75052099D01*
X210533977Y-75049386D01*
X210514477Y-75029885D01*
X210514471Y-75029880D01*
X210511286Y-75027409D01*
X210502434Y-75019848D01*
X210470582Y-74989938D01*
X210470580Y-74989936D01*
X210470577Y-74989935D01*
X210453029Y-74980288D01*
X210436763Y-74969604D01*
X210420932Y-74957324D01*
X210380849Y-74939978D01*
X210370363Y-74934841D01*
X210332094Y-74913803D01*
X210332092Y-74913802D01*
X210312693Y-74908822D01*
X210294281Y-74902518D01*
X210275898Y-74894562D01*
X210275892Y-74894560D01*
X210232760Y-74887729D01*
X210221322Y-74885361D01*
X210179020Y-74874500D01*
X210179019Y-74874500D01*
X210158984Y-74874500D01*
X210139586Y-74872973D01*
X210132162Y-74871797D01*
X210119805Y-74869840D01*
X210119804Y-74869840D01*
X210076325Y-74873950D01*
X210064656Y-74874500D01*
X201210453Y-74874500D01*
X201143414Y-74854815D01*
X201122772Y-74838181D01*
X195266149Y-68981558D01*
X195232664Y-68920235D01*
X195237648Y-68850543D01*
X195261681Y-68810904D01*
X195263023Y-68809414D01*
X195332533Y-68732216D01*
X195427179Y-68568284D01*
X195485674Y-68388256D01*
X195505460Y-68200000D01*
X195485674Y-68011744D01*
X195477900Y-67987818D01*
X195475905Y-67917977D01*
X195511985Y-67858144D01*
X195574686Y-67827316D01*
X195595831Y-67825500D01*
X208437257Y-67825500D01*
X208452877Y-67827224D01*
X208452904Y-67826939D01*
X208460660Y-67827671D01*
X208460667Y-67827673D01*
X208527873Y-67825561D01*
X208531768Y-67825500D01*
X208559346Y-67825500D01*
X208559350Y-67825500D01*
X208563324Y-67824997D01*
X208574963Y-67824080D01*
X208618627Y-67822709D01*
X208637869Y-67817117D01*
X208656912Y-67813174D01*
X208676792Y-67810664D01*
X208717401Y-67794585D01*
X208728444Y-67790803D01*
X208770390Y-67778618D01*
X208787629Y-67768422D01*
X208805103Y-67759862D01*
X208823727Y-67752488D01*
X208823727Y-67752487D01*
X208823732Y-67752486D01*
X208859083Y-67726800D01*
X208868814Y-67720408D01*
X208906420Y-67698170D01*
X208920589Y-67683999D01*
X208935379Y-67671368D01*
X208951587Y-67659594D01*
X208979438Y-67625926D01*
X208987279Y-67617309D01*
X209864353Y-66740235D01*
X209925674Y-66706752D01*
X209984125Y-66708143D01*
X210018780Y-66717428D01*
X210084592Y-66735063D01*
X210255319Y-66750000D01*
X210319999Y-66755659D01*
X210320000Y-66755659D01*
X210320001Y-66755659D01*
X210384681Y-66750000D01*
X210555408Y-66735063D01*
X210783663Y-66673903D01*
X210997830Y-66574035D01*
X211191401Y-66438495D01*
X211358495Y-66271401D01*
X211488425Y-66085842D01*
X211543002Y-66042217D01*
X211612500Y-66035023D01*
X211674855Y-66066546D01*
X211691575Y-66085842D01*
X211821501Y-66271396D01*
X211821506Y-66271402D01*
X211988597Y-66438493D01*
X211988603Y-66438498D01*
X212009893Y-66453405D01*
X212086424Y-66506993D01*
X212116123Y-66527788D01*
X212159748Y-66582365D01*
X212169000Y-66629363D01*
X212169000Y-66735374D01*
X212168774Y-66742861D01*
X212165195Y-66802025D01*
X212165195Y-66802028D01*
X212175879Y-66860333D01*
X212177006Y-66867735D01*
X212184152Y-66926582D01*
X212187644Y-66935792D01*
X212193666Y-66957395D01*
X212195441Y-66967081D01*
X212219772Y-67021144D01*
X212222636Y-67028061D01*
X212243653Y-67083478D01*
X212243656Y-67083482D01*
X212249250Y-67091586D01*
X212260274Y-67111134D01*
X212264308Y-67120099D01*
X212264314Y-67120108D01*
X212300863Y-67166760D01*
X212305302Y-67172792D01*
X212338980Y-67221583D01*
X212383351Y-67260893D01*
X212388805Y-67266027D01*
X220593971Y-75471192D01*
X220599091Y-75476630D01*
X220638417Y-75521020D01*
X220687219Y-75554705D01*
X220693238Y-75559134D01*
X220739895Y-75595688D01*
X220748869Y-75599726D01*
X220768413Y-75610749D01*
X220776518Y-75616344D01*
X220831947Y-75637365D01*
X220838852Y-75640225D01*
X220892915Y-75664558D01*
X220892917Y-75664558D01*
X220892919Y-75664559D01*
X220902592Y-75666331D01*
X220924227Y-75672362D01*
X220933417Y-75675848D01*
X220944903Y-75677242D01*
X220992263Y-75682992D01*
X220999631Y-75684113D01*
X221057972Y-75694805D01*
X221117139Y-75691226D01*
X221124626Y-75691000D01*
X224365501Y-75691000D01*
X224432540Y-75710685D01*
X224478295Y-75763489D01*
X224489501Y-75815000D01*
X224489501Y-75897876D01*
X224495908Y-75957483D01*
X224546202Y-76092328D01*
X224546206Y-76092335D01*
X224632452Y-76207544D01*
X224632455Y-76207547D01*
X224747664Y-76293793D01*
X224747671Y-76293797D01*
X224882517Y-76344091D01*
X224882516Y-76344091D01*
X224889444Y-76344835D01*
X224942127Y-76350500D01*
X226737872Y-76350499D01*
X226797483Y-76344091D01*
X226932331Y-76293796D01*
X227047546Y-76207546D01*
X227133796Y-76092331D01*
X227183002Y-75960401D01*
X227224872Y-75904468D01*
X227290337Y-75880050D01*
X227358610Y-75894901D01*
X227386865Y-75916053D01*
X227508917Y-76038105D01*
X227702421Y-76173600D01*
X227916507Y-76273429D01*
X227916516Y-76273433D01*
X228130000Y-76330634D01*
X228130000Y-75435501D01*
X228237685Y-75484680D01*
X228344237Y-75500000D01*
X228415763Y-75500000D01*
X228522315Y-75484680D01*
X228630000Y-75435501D01*
X228630000Y-76330633D01*
X228843483Y-76273433D01*
X228843492Y-76273429D01*
X229057578Y-76173600D01*
X229251082Y-76038105D01*
X229418105Y-75871082D01*
X229548119Y-75685405D01*
X229602696Y-75641781D01*
X229672195Y-75634588D01*
X229734549Y-75666110D01*
X229751269Y-75685405D01*
X229881505Y-75871401D01*
X230048599Y-76038495D01*
X230145384Y-76106265D01*
X230242165Y-76174032D01*
X230242167Y-76174033D01*
X230242170Y-76174035D01*
X230456337Y-76273903D01*
X230456343Y-76273904D01*
X230456344Y-76273905D01*
X230511285Y-76288626D01*
X230684592Y-76335063D01*
X230861034Y-76350500D01*
X230919999Y-76355659D01*
X230920000Y-76355659D01*
X230920001Y-76355659D01*
X230978966Y-76350500D01*
X231155408Y-76335063D01*
X231383663Y-76273903D01*
X231597830Y-76174035D01*
X231791401Y-76038495D01*
X231958495Y-75871401D01*
X232088425Y-75685842D01*
X232143002Y-75642217D01*
X232212500Y-75635023D01*
X232274855Y-75666546D01*
X232291575Y-75685842D01*
X232421500Y-75871395D01*
X232421505Y-75871401D01*
X232588599Y-76038495D01*
X232685384Y-76106265D01*
X232782165Y-76174032D01*
X232782167Y-76174033D01*
X232782170Y-76174035D01*
X232996337Y-76273903D01*
X232996343Y-76273904D01*
X232996344Y-76273905D01*
X233051285Y-76288626D01*
X233224592Y-76335063D01*
X233401034Y-76350500D01*
X233459999Y-76355659D01*
X233460000Y-76355659D01*
X233460001Y-76355659D01*
X233518966Y-76350500D01*
X233695408Y-76335063D01*
X233923663Y-76273903D01*
X234137830Y-76174035D01*
X234331401Y-76038495D01*
X234498495Y-75871401D01*
X234628425Y-75685842D01*
X234683002Y-75642217D01*
X234752500Y-75635023D01*
X234814855Y-75666546D01*
X234831575Y-75685842D01*
X234961500Y-75871395D01*
X234961505Y-75871401D01*
X235128599Y-76038495D01*
X235225384Y-76106265D01*
X235322165Y-76174032D01*
X235322167Y-76174033D01*
X235322170Y-76174035D01*
X235536337Y-76273903D01*
X235536343Y-76273904D01*
X235536344Y-76273905D01*
X235591285Y-76288626D01*
X235764592Y-76335063D01*
X235941034Y-76350500D01*
X235999999Y-76355659D01*
X236000000Y-76355659D01*
X236000001Y-76355659D01*
X236058966Y-76350500D01*
X236235408Y-76335063D01*
X236463663Y-76273903D01*
X236677830Y-76174035D01*
X236871401Y-76038495D01*
X237038495Y-75871401D01*
X237174035Y-75677830D01*
X237273903Y-75463663D01*
X237335063Y-75235408D01*
X237355659Y-75000000D01*
X237354778Y-74989936D01*
X237349369Y-74928111D01*
X237335063Y-74764592D01*
X237273903Y-74536337D01*
X237174035Y-74322171D01*
X237168731Y-74314595D01*
X237038494Y-74128597D01*
X236871402Y-73961506D01*
X236871395Y-73961501D01*
X236677834Y-73825967D01*
X236677830Y-73825965D01*
X236646042Y-73811142D01*
X236463663Y-73726097D01*
X236463659Y-73726096D01*
X236463655Y-73726094D01*
X236235413Y-73664938D01*
X236235403Y-73664936D01*
X236000001Y-73644341D01*
X235999999Y-73644341D01*
X235764596Y-73664936D01*
X235764586Y-73664938D01*
X235536344Y-73726094D01*
X235536335Y-73726098D01*
X235322171Y-73825964D01*
X235322169Y-73825965D01*
X235128597Y-73961505D01*
X234961505Y-74128597D01*
X234831575Y-74314158D01*
X234776998Y-74357783D01*
X234707500Y-74364977D01*
X234645145Y-74333454D01*
X234628425Y-74314158D01*
X234498494Y-74128597D01*
X234331402Y-73961506D01*
X234331395Y-73961501D01*
X234137834Y-73825967D01*
X234137830Y-73825965D01*
X234106042Y-73811142D01*
X233923663Y-73726097D01*
X233923659Y-73726096D01*
X233923655Y-73726094D01*
X233695413Y-73664938D01*
X233695403Y-73664936D01*
X233460001Y-73644341D01*
X233459999Y-73644341D01*
X233224596Y-73664936D01*
X233224586Y-73664938D01*
X232996344Y-73726094D01*
X232996335Y-73726098D01*
X232782171Y-73825964D01*
X232782169Y-73825965D01*
X232588597Y-73961505D01*
X232421505Y-74128597D01*
X232291575Y-74314158D01*
X232236998Y-74357783D01*
X232167500Y-74364977D01*
X232105145Y-74333454D01*
X232088425Y-74314158D01*
X231958494Y-74128597D01*
X231791402Y-73961506D01*
X231791395Y-73961501D01*
X231597834Y-73825967D01*
X231597830Y-73825965D01*
X231566042Y-73811142D01*
X231383663Y-73726097D01*
X231383659Y-73726096D01*
X231383655Y-73726094D01*
X231155413Y-73664938D01*
X231155403Y-73664936D01*
X230920001Y-73644341D01*
X230919999Y-73644341D01*
X230684596Y-73664936D01*
X230684586Y-73664938D01*
X230456344Y-73726094D01*
X230456335Y-73726098D01*
X230242171Y-73825964D01*
X230242169Y-73825965D01*
X230048597Y-73961505D01*
X229881508Y-74128594D01*
X229751269Y-74314595D01*
X229696692Y-74358219D01*
X229627193Y-74365412D01*
X229564839Y-74333890D01*
X229548119Y-74314594D01*
X229418113Y-74128926D01*
X229418108Y-74128920D01*
X229251082Y-73961894D01*
X229057578Y-73826399D01*
X228843492Y-73726570D01*
X228843486Y-73726567D01*
X228630000Y-73669364D01*
X228630000Y-74564498D01*
X228522315Y-74515320D01*
X228415763Y-74500000D01*
X228344237Y-74500000D01*
X228237685Y-74515320D01*
X228130000Y-74564498D01*
X228130000Y-73669364D01*
X228129999Y-73669364D01*
X227916513Y-73726567D01*
X227916507Y-73726570D01*
X227702422Y-73826399D01*
X227702420Y-73826400D01*
X227508926Y-73961886D01*
X227386865Y-74083947D01*
X227325542Y-74117431D01*
X227255850Y-74112447D01*
X227199917Y-74070575D01*
X227183002Y-74039598D01*
X227133797Y-73907671D01*
X227133793Y-73907664D01*
X227047547Y-73792455D01*
X227047544Y-73792452D01*
X226932335Y-73706206D01*
X226932328Y-73706202D01*
X226797482Y-73655908D01*
X226797483Y-73655908D01*
X226737883Y-73649501D01*
X226737881Y-73649500D01*
X226737873Y-73649500D01*
X226737864Y-73649500D01*
X224942129Y-73649500D01*
X224942123Y-73649501D01*
X224882516Y-73655908D01*
X224747671Y-73706202D01*
X224747664Y-73706206D01*
X224632455Y-73792452D01*
X224632452Y-73792455D01*
X224546206Y-73907664D01*
X224546202Y-73907671D01*
X224495908Y-74042517D01*
X224489501Y-74102116D01*
X224489500Y-74102135D01*
X224489500Y-74185000D01*
X224469815Y-74252039D01*
X224417011Y-74297794D01*
X224365500Y-74309000D01*
X222906948Y-74309000D01*
X222839909Y-74289315D01*
X222794154Y-74236511D01*
X222784210Y-74167353D01*
X222799560Y-74123001D01*
X222811618Y-74102116D01*
X222875009Y-73992319D01*
X222933504Y-73812291D01*
X222936102Y-73787568D01*
X222962684Y-73722954D01*
X222971733Y-73712855D01*
X226822772Y-69861819D01*
X226884095Y-69828334D01*
X226910453Y-69825500D01*
X228267257Y-69825500D01*
X228282877Y-69827224D01*
X228282904Y-69826939D01*
X228290660Y-69827671D01*
X228290667Y-69827673D01*
X228357873Y-69825561D01*
X228361768Y-69825500D01*
X228389346Y-69825500D01*
X228389350Y-69825500D01*
X228393324Y-69824997D01*
X228404963Y-69824080D01*
X228448627Y-69822709D01*
X228467869Y-69817117D01*
X228486912Y-69813174D01*
X228506792Y-69810664D01*
X228547401Y-69794585D01*
X228558444Y-69790803D01*
X228600390Y-69778618D01*
X228617629Y-69768422D01*
X228635103Y-69759862D01*
X228653727Y-69752488D01*
X228653727Y-69752487D01*
X228653732Y-69752486D01*
X228689083Y-69726800D01*
X228698814Y-69720408D01*
X228736420Y-69698170D01*
X228750589Y-69683999D01*
X228765379Y-69671368D01*
X228781587Y-69659594D01*
X228809438Y-69625926D01*
X228817279Y-69617309D01*
X229583786Y-68850802D01*
X229596048Y-68840980D01*
X229595865Y-68840759D01*
X229601868Y-68835791D01*
X229601877Y-68835786D01*
X229647934Y-68786739D01*
X229650582Y-68784006D01*
X229670120Y-68764470D01*
X229672570Y-68761310D01*
X229680154Y-68752429D01*
X229710062Y-68720582D01*
X229719714Y-68703023D01*
X229730389Y-68686772D01*
X229742674Y-68670936D01*
X229745083Y-68665368D01*
X229789765Y-68611658D01*
X229856396Y-68590631D01*
X229911291Y-68602223D01*
X229936337Y-68613903D01*
X230164592Y-68675063D01*
X230352918Y-68691539D01*
X230399999Y-68695659D01*
X230400000Y-68695659D01*
X230400001Y-68695659D01*
X230439234Y-68692226D01*
X230635408Y-68675063D01*
X230863663Y-68613903D01*
X231077830Y-68514035D01*
X231271401Y-68378495D01*
X231438495Y-68211401D01*
X231568425Y-68025842D01*
X231623002Y-67982217D01*
X231692500Y-67975023D01*
X231754855Y-68006546D01*
X231771575Y-68025842D01*
X231901500Y-68211395D01*
X231901505Y-68211401D01*
X232068599Y-68378495D01*
X232134304Y-68424502D01*
X232262165Y-68514032D01*
X232262167Y-68514033D01*
X232262170Y-68514035D01*
X232476337Y-68613903D01*
X232704592Y-68675063D01*
X232892918Y-68691539D01*
X232939999Y-68695659D01*
X232940000Y-68695659D01*
X232940001Y-68695659D01*
X232979234Y-68692226D01*
X233175408Y-68675063D01*
X233403663Y-68613903D01*
X233617830Y-68514035D01*
X233811401Y-68378495D01*
X233978495Y-68211401D01*
X234114035Y-68017830D01*
X234213903Y-67803663D01*
X234275063Y-67575408D01*
X234295659Y-67340000D01*
X234275063Y-67104592D01*
X234220110Y-66899501D01*
X234213905Y-66876344D01*
X234213904Y-66876343D01*
X234213903Y-66876337D01*
X234114035Y-66662171D01*
X234110387Y-66656960D01*
X233978494Y-66468597D01*
X233811402Y-66301506D01*
X233811401Y-66301505D01*
X233625405Y-66171269D01*
X233581781Y-66116692D01*
X233574588Y-66047193D01*
X233606110Y-65984839D01*
X233625405Y-65968119D01*
X233811082Y-65838105D01*
X233978105Y-65671082D01*
X234113600Y-65477578D01*
X234213429Y-65263492D01*
X234213432Y-65263486D01*
X234270636Y-65050000D01*
X233373686Y-65050000D01*
X233399493Y-65009844D01*
X233440000Y-64871889D01*
X233440000Y-64728111D01*
X233399493Y-64590156D01*
X233373686Y-64550000D01*
X234270636Y-64550000D01*
X234270635Y-64549999D01*
X234213432Y-64336513D01*
X234213429Y-64336507D01*
X234113600Y-64122422D01*
X234113599Y-64122420D01*
X233978113Y-63928926D01*
X233978108Y-63928920D01*
X233811082Y-63761894D01*
X233617578Y-63626399D01*
X233403492Y-63526570D01*
X233403486Y-63526567D01*
X233190000Y-63469364D01*
X233190000Y-64364498D01*
X233082315Y-64315320D01*
X232975763Y-64300000D01*
X232904237Y-64300000D01*
X232797685Y-64315320D01*
X232690000Y-64364498D01*
X232690000Y-63469364D01*
X232689999Y-63469364D01*
X232476513Y-63526567D01*
X232476507Y-63526570D01*
X232262422Y-63626399D01*
X232262420Y-63626400D01*
X232068926Y-63761886D01*
X232068920Y-63761891D01*
X231901891Y-63928920D01*
X231901890Y-63928922D01*
X231771880Y-64114595D01*
X231717303Y-64158219D01*
X231647804Y-64165412D01*
X231585450Y-64133890D01*
X231568730Y-64114594D01*
X231438494Y-63928597D01*
X231271402Y-63761506D01*
X231271395Y-63761501D01*
X231077834Y-63625967D01*
X231077830Y-63625965D01*
X231077828Y-63625964D01*
X230863663Y-63526097D01*
X230863659Y-63526096D01*
X230863655Y-63526094D01*
X230635413Y-63464938D01*
X230635403Y-63464936D01*
X230400001Y-63444341D01*
X230399999Y-63444341D01*
X230164596Y-63464936D01*
X230164586Y-63464938D01*
X229936344Y-63526094D01*
X229936335Y-63526098D01*
X229722171Y-63625964D01*
X229722169Y-63625965D01*
X229528597Y-63761505D01*
X229361505Y-63928597D01*
X229231575Y-64114158D01*
X229176998Y-64157783D01*
X229107500Y-64164977D01*
X229045145Y-64133454D01*
X229028425Y-64114158D01*
X228898494Y-63928597D01*
X228731402Y-63761506D01*
X228731395Y-63761501D01*
X228537834Y-63625967D01*
X228537830Y-63625965D01*
X228537828Y-63625964D01*
X228323663Y-63526097D01*
X228323659Y-63526096D01*
X228323655Y-63526094D01*
X228095413Y-63464938D01*
X228095403Y-63464936D01*
X227860001Y-63444341D01*
X227859999Y-63444341D01*
X227624596Y-63464936D01*
X227624586Y-63464938D01*
X227396344Y-63526094D01*
X227396335Y-63526098D01*
X227182171Y-63625964D01*
X227182169Y-63625965D01*
X226988597Y-63761505D01*
X226821505Y-63928597D01*
X226685965Y-64122169D01*
X226685964Y-64122171D01*
X226586098Y-64336335D01*
X226586094Y-64336344D01*
X226524938Y-64564586D01*
X226524936Y-64564596D01*
X226504341Y-64799999D01*
X226504341Y-64800000D01*
X226524936Y-65035403D01*
X226524938Y-65035413D01*
X226586094Y-65263655D01*
X226586096Y-65263659D01*
X226586097Y-65263663D01*
X226680500Y-65466110D01*
X226685965Y-65477830D01*
X226685967Y-65477834D01*
X226760412Y-65584151D01*
X226821501Y-65671396D01*
X226821506Y-65671402D01*
X226943430Y-65793326D01*
X226976915Y-65854649D01*
X226971931Y-65924341D01*
X226930059Y-65980274D01*
X226899083Y-65997189D01*
X226767669Y-66046203D01*
X226767664Y-66046206D01*
X226652455Y-66132452D01*
X226652452Y-66132455D01*
X226566206Y-66247664D01*
X226566202Y-66247671D01*
X226515908Y-66382517D01*
X226509501Y-66442116D01*
X226509500Y-66442135D01*
X226509500Y-66776475D01*
X226489815Y-66843514D01*
X226458391Y-66876789D01*
X226453413Y-66880405D01*
X226453411Y-66880407D01*
X226425573Y-66914058D01*
X226417711Y-66922697D01*
X221252228Y-72088181D01*
X221190905Y-72121666D01*
X221164547Y-72124500D01*
X221105354Y-72124500D01*
X221095211Y-72126656D01*
X220920197Y-72163855D01*
X220920192Y-72163857D01*
X220747270Y-72240848D01*
X220747265Y-72240851D01*
X220594129Y-72352111D01*
X220467466Y-72492785D01*
X220372821Y-72656715D01*
X220372818Y-72656722D01*
X220314327Y-72836740D01*
X220314326Y-72836744D01*
X220304732Y-72928026D01*
X220303423Y-72940481D01*
X220276838Y-73005096D01*
X220219540Y-73045080D01*
X220149721Y-73047740D01*
X220092421Y-73015200D01*
X216956033Y-69878812D01*
X213709038Y-66631816D01*
X213675553Y-66570493D01*
X213680537Y-66500801D01*
X213722409Y-66444868D01*
X213725596Y-66442560D01*
X213727688Y-66441094D01*
X213731401Y-66438495D01*
X213898495Y-66271401D01*
X214028425Y-66085842D01*
X214083002Y-66042217D01*
X214152500Y-66035023D01*
X214214855Y-66066546D01*
X214231575Y-66085842D01*
X214357719Y-66265995D01*
X214361505Y-66271401D01*
X214528599Y-66438495D01*
X214571589Y-66468597D01*
X214722165Y-66574032D01*
X214722167Y-66574033D01*
X214722170Y-66574035D01*
X214936337Y-66673903D01*
X214936343Y-66673904D01*
X214936344Y-66673905D01*
X214936848Y-66674040D01*
X215164592Y-66735063D01*
X215335319Y-66750000D01*
X215399999Y-66755659D01*
X215400000Y-66755659D01*
X215400001Y-66755659D01*
X215464681Y-66750000D01*
X215635408Y-66735063D01*
X215863663Y-66673903D01*
X216077830Y-66574035D01*
X216271401Y-66438495D01*
X216393717Y-66316178D01*
X216455036Y-66282696D01*
X216524728Y-66287680D01*
X216580662Y-66329551D01*
X216597577Y-66360528D01*
X216646646Y-66492088D01*
X216646649Y-66492093D01*
X216732809Y-66607187D01*
X216732812Y-66607190D01*
X216847906Y-66693350D01*
X216847913Y-66693354D01*
X216982620Y-66743596D01*
X216982627Y-66743598D01*
X217042155Y-66749999D01*
X217042172Y-66750000D01*
X217690000Y-66750000D01*
X217690000Y-65835501D01*
X217797685Y-65884680D01*
X217904237Y-65900000D01*
X217975763Y-65900000D01*
X218082315Y-65884680D01*
X218190000Y-65835501D01*
X218190000Y-66750000D01*
X218837828Y-66750000D01*
X218837844Y-66749999D01*
X218897372Y-66743598D01*
X218897379Y-66743596D01*
X219032086Y-66693354D01*
X219032093Y-66693350D01*
X219147187Y-66607190D01*
X219147190Y-66607187D01*
X219233350Y-66492093D01*
X219233354Y-66492086D01*
X219283596Y-66357379D01*
X219283598Y-66357372D01*
X219289999Y-66297844D01*
X219290000Y-66297827D01*
X219290000Y-65650000D01*
X218373686Y-65650000D01*
X218399493Y-65609844D01*
X218440000Y-65471889D01*
X218440000Y-65328111D01*
X218399493Y-65190156D01*
X218373686Y-65150000D01*
X219290000Y-65150000D01*
X219290000Y-64502172D01*
X219289999Y-64502155D01*
X219283598Y-64442627D01*
X219283596Y-64442620D01*
X219233354Y-64307913D01*
X219233350Y-64307906D01*
X219147190Y-64192812D01*
X219147187Y-64192809D01*
X219032093Y-64106649D01*
X219032086Y-64106645D01*
X218897379Y-64056403D01*
X218897372Y-64056401D01*
X218837844Y-64050000D01*
X218190000Y-64050000D01*
X218190000Y-64964498D01*
X218082315Y-64915320D01*
X217975763Y-64900000D01*
X217904237Y-64900000D01*
X217797685Y-64915320D01*
X217690000Y-64964498D01*
X217690000Y-64050000D01*
X217042155Y-64050000D01*
X216982627Y-64056401D01*
X216982620Y-64056403D01*
X216847913Y-64106645D01*
X216847906Y-64106649D01*
X216732812Y-64192809D01*
X216732809Y-64192812D01*
X216646649Y-64307906D01*
X216646645Y-64307913D01*
X216597578Y-64439470D01*
X216555707Y-64495404D01*
X216490242Y-64519821D01*
X216421969Y-64504969D01*
X216393715Y-64483819D01*
X216341611Y-64431715D01*
X216271401Y-64361505D01*
X216271397Y-64361502D01*
X216271396Y-64361501D01*
X216077834Y-64225967D01*
X216077830Y-64225965D01*
X216006727Y-64192809D01*
X215863663Y-64126097D01*
X215863659Y-64126096D01*
X215863655Y-64126094D01*
X215635413Y-64064938D01*
X215635403Y-64064936D01*
X215400001Y-64044341D01*
X215399999Y-64044341D01*
X215164596Y-64064936D01*
X215164586Y-64064938D01*
X214936344Y-64126094D01*
X214936337Y-64126096D01*
X214936337Y-64126097D01*
X214934160Y-64127112D01*
X214722171Y-64225964D01*
X214722169Y-64225965D01*
X214528597Y-64361505D01*
X214361505Y-64528597D01*
X214231575Y-64714158D01*
X214176998Y-64757783D01*
X214107500Y-64764977D01*
X214045145Y-64733454D01*
X214028425Y-64714158D01*
X213898494Y-64528597D01*
X213731402Y-64361506D01*
X213731395Y-64361501D01*
X213537834Y-64225967D01*
X213537830Y-64225965D01*
X213466727Y-64192809D01*
X213323663Y-64126097D01*
X213323659Y-64126096D01*
X213323655Y-64126094D01*
X213095413Y-64064938D01*
X213095403Y-64064936D01*
X212860001Y-64044341D01*
X212859999Y-64044341D01*
X212624596Y-64064936D01*
X212624586Y-64064938D01*
X212396344Y-64126094D01*
X212396337Y-64126096D01*
X212396337Y-64126097D01*
X212394160Y-64127112D01*
X212182171Y-64225964D01*
X212182169Y-64225965D01*
X211988597Y-64361505D01*
X211821505Y-64528597D01*
X211691575Y-64714158D01*
X211636998Y-64757783D01*
X211567500Y-64764977D01*
X211505145Y-64733454D01*
X211488425Y-64714158D01*
X211358494Y-64528597D01*
X211191402Y-64361506D01*
X211191395Y-64361501D01*
X210997834Y-64225967D01*
X210997830Y-64225965D01*
X210926727Y-64192809D01*
X210783663Y-64126097D01*
X210783659Y-64126096D01*
X210783655Y-64126094D01*
X210555413Y-64064938D01*
X210555403Y-64064936D01*
X210320001Y-64044341D01*
X210319999Y-64044341D01*
X210084596Y-64064936D01*
X210084586Y-64064938D01*
X209856344Y-64126094D01*
X209856337Y-64126096D01*
X209856337Y-64126097D01*
X209854160Y-64127112D01*
X209642171Y-64225964D01*
X209642169Y-64225965D01*
X209448597Y-64361505D01*
X209281505Y-64528597D01*
X209151575Y-64714158D01*
X209096998Y-64757783D01*
X209027500Y-64764977D01*
X208965145Y-64733454D01*
X208948425Y-64714158D01*
X208818494Y-64528597D01*
X208651402Y-64361506D01*
X208651395Y-64361501D01*
X208457834Y-64225967D01*
X208457830Y-64225965D01*
X208386727Y-64192809D01*
X208243663Y-64126097D01*
X208243659Y-64126096D01*
X208243655Y-64126094D01*
X208015413Y-64064938D01*
X208015403Y-64064936D01*
X207780001Y-64044341D01*
X207779999Y-64044341D01*
X207544596Y-64064936D01*
X207544586Y-64064938D01*
X207316344Y-64126094D01*
X207316337Y-64126096D01*
X207316337Y-64126097D01*
X207314160Y-64127112D01*
X207102171Y-64225964D01*
X207102169Y-64225965D01*
X206908597Y-64361505D01*
X206741505Y-64528597D01*
X206611575Y-64714158D01*
X206556998Y-64757783D01*
X206487500Y-64764977D01*
X206425145Y-64733454D01*
X206408425Y-64714158D01*
X206278494Y-64528597D01*
X206111402Y-64361506D01*
X206111395Y-64361501D01*
X205917834Y-64225967D01*
X205917830Y-64225965D01*
X205846727Y-64192809D01*
X205703663Y-64126097D01*
X205703659Y-64126096D01*
X205703655Y-64126094D01*
X205475413Y-64064938D01*
X205475403Y-64064936D01*
X205240001Y-64044341D01*
X205239999Y-64044341D01*
X205004596Y-64064936D01*
X205004586Y-64064938D01*
X204776344Y-64126094D01*
X204776337Y-64126096D01*
X204776337Y-64126097D01*
X204774160Y-64127112D01*
X204562171Y-64225964D01*
X204562169Y-64225965D01*
X204368597Y-64361505D01*
X204201505Y-64528597D01*
X204065965Y-64722169D01*
X204065964Y-64722171D01*
X203966098Y-64936335D01*
X203966094Y-64936344D01*
X203904938Y-65164586D01*
X203904936Y-65164596D01*
X203884341Y-65399999D01*
X203884341Y-65400000D01*
X203904936Y-65635403D01*
X203904938Y-65635413D01*
X203966094Y-65863655D01*
X203966099Y-65863669D01*
X204005468Y-65948096D01*
X204015960Y-66017173D01*
X203987440Y-66080957D01*
X203928963Y-66119196D01*
X203893086Y-66124500D01*
X193496347Y-66124500D01*
X193480726Y-66122775D01*
X193480699Y-66123061D01*
X193472937Y-66122326D01*
X193405717Y-66124439D01*
X193401823Y-66124500D01*
X193374254Y-66124500D01*
X193370277Y-66125002D01*
X193358646Y-66125917D01*
X193314978Y-66127289D01*
X193314972Y-66127290D01*
X193295730Y-66132880D01*
X193276691Y-66136823D01*
X193256821Y-66139334D01*
X193256807Y-66139337D01*
X193216202Y-66155413D01*
X193205158Y-66159194D01*
X193163218Y-66171379D01*
X193163214Y-66171381D01*
X193145970Y-66181579D01*
X193128509Y-66190133D01*
X193109878Y-66197510D01*
X193109866Y-66197517D01*
X193074537Y-66223185D01*
X193064777Y-66229596D01*
X193027184Y-66251829D01*
X193013018Y-66265995D01*
X192998228Y-66278627D01*
X192982018Y-66290404D01*
X192982015Y-66290407D01*
X192954177Y-66324058D01*
X192946315Y-66332697D01*
X192758648Y-66520364D01*
X192697325Y-66553849D01*
X192627633Y-66548865D01*
X192571700Y-66506993D01*
X192547283Y-66441529D01*
X192547678Y-66419424D01*
X192549999Y-66397836D01*
X192550000Y-66397827D01*
X192550000Y-65750000D01*
X191633686Y-65750000D01*
X191659493Y-65709844D01*
X191700000Y-65571889D01*
X191700000Y-65428111D01*
X191659493Y-65290156D01*
X191633686Y-65250000D01*
X192550000Y-65250000D01*
X192550000Y-64602172D01*
X192549999Y-64602155D01*
X192543598Y-64542627D01*
X192543596Y-64542620D01*
X192493354Y-64407913D01*
X192493350Y-64407906D01*
X192407190Y-64292812D01*
X192407187Y-64292809D01*
X192292093Y-64206649D01*
X192292086Y-64206645D01*
X192157379Y-64156403D01*
X192157372Y-64156401D01*
X192097844Y-64150000D01*
X191450000Y-64150000D01*
X191450000Y-65064498D01*
X191342315Y-65015320D01*
X191235763Y-65000000D01*
X191164237Y-65000000D01*
X191057685Y-65015320D01*
X190950000Y-65064498D01*
X190950000Y-64150000D01*
X190302155Y-64150000D01*
X190242627Y-64156401D01*
X190242620Y-64156403D01*
X190107913Y-64206645D01*
X190107906Y-64206649D01*
X189992812Y-64292809D01*
X189992809Y-64292812D01*
X189906649Y-64407906D01*
X189906645Y-64407913D01*
X189857578Y-64539470D01*
X189815707Y-64595404D01*
X189750242Y-64619821D01*
X189681969Y-64604969D01*
X189653715Y-64583819D01*
X189596885Y-64526989D01*
X189531401Y-64461505D01*
X189531397Y-64461502D01*
X189531396Y-64461501D01*
X189337834Y-64325967D01*
X189337830Y-64325965D01*
X189266727Y-64292809D01*
X189123663Y-64226097D01*
X189123659Y-64226096D01*
X189123655Y-64226094D01*
X188895413Y-64164938D01*
X188895403Y-64164936D01*
X188660001Y-64144341D01*
X188659999Y-64144341D01*
X188424596Y-64164936D01*
X188424586Y-64164938D01*
X188196344Y-64226094D01*
X188196335Y-64226098D01*
X187982171Y-64325964D01*
X187982169Y-64325965D01*
X187788597Y-64461505D01*
X187621505Y-64628597D01*
X187491575Y-64814158D01*
X187436998Y-64857783D01*
X187367500Y-64864977D01*
X187305145Y-64833454D01*
X187288425Y-64814158D01*
X187158494Y-64628597D01*
X186991402Y-64461506D01*
X186991395Y-64461501D01*
X186797834Y-64325967D01*
X186797830Y-64325965D01*
X186726727Y-64292809D01*
X186583663Y-64226097D01*
X186583659Y-64226096D01*
X186583655Y-64226094D01*
X186355413Y-64164938D01*
X186355403Y-64164936D01*
X186120001Y-64144341D01*
X186119999Y-64144341D01*
X185884596Y-64164936D01*
X185884586Y-64164938D01*
X185656344Y-64226094D01*
X185656335Y-64226098D01*
X185442171Y-64325964D01*
X185442169Y-64325965D01*
X185248597Y-64461505D01*
X185081505Y-64628597D01*
X184951575Y-64814158D01*
X184896998Y-64857783D01*
X184827500Y-64864977D01*
X184765145Y-64833454D01*
X184748425Y-64814158D01*
X184618494Y-64628597D01*
X184451402Y-64461506D01*
X184451395Y-64461501D01*
X184257834Y-64325967D01*
X184257830Y-64325965D01*
X184186727Y-64292809D01*
X184043663Y-64226097D01*
X184043659Y-64226096D01*
X184043655Y-64226094D01*
X183815413Y-64164938D01*
X183815403Y-64164936D01*
X183580001Y-64144341D01*
X183579999Y-64144341D01*
X183344596Y-64164936D01*
X183344586Y-64164938D01*
X183116344Y-64226094D01*
X183116335Y-64226098D01*
X182902171Y-64325964D01*
X182902169Y-64325965D01*
X182708597Y-64461505D01*
X182541505Y-64628597D01*
X182405965Y-64822169D01*
X182405964Y-64822171D01*
X182323041Y-65000000D01*
X182309046Y-65030014D01*
X182306098Y-65036335D01*
X182306094Y-65036344D01*
X182244938Y-65264586D01*
X182244937Y-65264593D01*
X182243362Y-65282590D01*
X182217906Y-65347657D01*
X182161314Y-65388633D01*
X182091552Y-65392509D01*
X182030769Y-65358052D01*
X182016237Y-65339920D01*
X181987375Y-65296037D01*
X181985469Y-65293046D01*
X181945870Y-65228846D01*
X181945867Y-65228843D01*
X181941392Y-65223183D01*
X181941434Y-65223149D01*
X181936597Y-65217211D01*
X181936556Y-65217246D01*
X181931912Y-65211712D01*
X181877061Y-65159963D01*
X181874473Y-65157449D01*
X179928766Y-63211742D01*
X179916985Y-63198110D01*
X179899004Y-63173958D01*
X179874759Y-63108430D01*
X179889791Y-63040196D01*
X179939326Y-62990921D01*
X179998516Y-62975909D01*
X238875551Y-63000039D01*
G37*
%TD.AperFunction*%
%TD*%
M02*
