M48
; DRILL file {KiCad 7.0.10} date Sun Nov  3 00:17:19 2024
; FORMAT={-:-/ absolute / inch / decimal}
; #@! TF.CreationDate,2024-11-03T00:17:19-07:00
; #@! TF.GenerationSoftware,Kicad,Pcbnew,7.0.10
; #@! TF.FileFunction,Plated,1,2,PTH
FMAT,2
INCH
; #@! TA.AperFunction,Plated,PTH,ComponentDrill
T1C0.0079
; #@! TA.AperFunction,Plated,PTH,ViaDrill
T2C0.0157
; #@! TA.AperFunction,Plated,PTH,ComponentDrill
T3C0.0197
; #@! TA.AperFunction,Plated,PTH,ComponentDrill
T4C0.0315
; #@! TA.AperFunction,Plated,PTH,ComponentDrill
T5C0.0394
; #@! TA.AperFunction,Plated,PTH,ComponentDrill
T6C0.0591
%
G90
G05
T1
X6.628Y-2.6772
X6.628Y-2.7205
X6.628Y-2.7638
X6.6713Y-2.6772
X6.6713Y-2.7205
X6.6713Y-2.7638
X6.7146Y-2.6772
X6.7146Y-2.7205
X6.7146Y-2.7638
T2
X4.7756Y-2.5709
X4.9311Y-3.0906
X4.9311Y-3.1319
X4.9311Y-3.1752
X4.9685Y-3.1102
X4.9685Y-3.1535
X4.9882Y-2.5689
X5.0827Y-3.8071
X5.4685Y-3.8071
X5.5039Y-3.4547
X5.5768Y-3.4547
X5.7992Y-3.3051
X5.8031Y-3.1142
X5.8189Y-3.2677
X5.8248Y-3.1516
X5.8406Y-3.3051
X5.8465Y-3.1142
X5.8543Y-3.5354
X5.8583Y-3.7992
X5.8622Y-3.2677
X5.8681Y-3.1516
X5.8839Y-3.3051
X5.8878Y-3.1142
X5.9055Y-2.5728
X5.9055Y-2.6142
X5.9055Y-2.6575
X5.9094Y-2.872
X5.9094Y-2.9134
X5.9094Y-2.9567
X5.9272Y-3.4469
X5.9429Y-2.5925
X5.9429Y-2.6358
X5.9469Y-2.8917
X5.9469Y-2.935
X5.9921Y-3.4488
X6.1142Y-3.2657
X6.187Y-2.872
X6.1993Y-2.9624
X6.2264Y-3.2343
X6.2283Y-3.0827
X6.2299Y-2.9318
X6.241Y-2.9735
X6.252Y-3.7992
X6.2591Y-2.9025
X6.2598Y-3.2638
X6.2717Y-2.9429
X6.2815Y-3.439
X6.2953Y-3.1339
X6.2953Y-3.1713
X6.311Y-2.5512
X6.3406Y-3.439
X6.3681Y-3.0669
X6.3698Y-3.0
X6.4193Y-2.8248
X6.4213Y-2.8858
X6.4508Y-2.7146
X6.5418Y-2.755
X6.5439Y-2.7107
X6.6614Y-3.7992
X6.7224Y-2.5906
X6.8268Y-3.1319
X6.8268Y-3.1732
X6.8268Y-3.2165
X6.8642Y-3.1516
X6.8642Y-3.1949
X7.0512Y-3.7992
X7.0925Y-2.6043
X7.0925Y-2.6457
X7.0925Y-2.689
X7.119Y-2.5009
X7.1496Y-2.5315
X7.2965Y-2.7098
X7.378Y-3.1378
X7.378Y-3.2205
X7.3906Y-3.0126
X7.4291Y-3.8031
X7.4409Y-3.0787
X7.4567Y-3.1447
X7.4803Y-2.748
X7.4812Y-2.7087
X7.5276Y-2.8932
X7.5276Y-2.9724
X7.5591Y-2.9409
X7.5827Y-2.8504
X7.6194Y-2.7908
X7.622Y-2.6929
X7.6278Y-3.3028
X7.6378Y-2.5591
X7.6437Y-3.2146
X7.6457Y-3.1693
X7.6571Y-3.332
X7.6575Y-2.5945
X7.6614Y-2.685
X7.6682Y-3.2902
X7.6693Y-2.8504
X7.6772Y-2.5591
X7.6877Y-3.3626
X7.6988Y-3.3209
X7.7008Y-2.5945
X7.7972Y-2.7293
X7.8228Y-3.8031
X7.8504Y-2.7795
X7.8661Y-2.6949
X8.2205Y-3.7992
X8.4291Y-3.6575
X8.6298Y-2.6925
X8.659Y-2.7218
X8.6702Y-2.68
X8.6897Y-2.7524
X8.7008Y-2.7106
X8.7087Y-2.875
X8.742Y-2.8986
X9.2854Y-2.561
X9.2854Y-2.6024
X9.2854Y-2.6457
X9.3228Y-2.5807
X9.3228Y-2.624
T4
X5.1535Y-3.128
X5.1535Y-3.2067
X5.3642Y-2.7028
X5.4429Y-2.7028
X5.5217Y-2.7028
T5
X7.2276Y-2.5787
X7.3276Y-2.5787
X7.4276Y-2.5787
X7.5276Y-2.5787
X8.0701Y-3.0709
X8.0803Y-2.5748
X8.1663Y-3.2638
X8.1701Y-3.0709
X8.1803Y-2.5748
X8.2663Y-3.2638
X8.2701Y-3.0709
X8.2803Y-2.5748
X8.3663Y-3.2638
X8.3701Y-3.0709
X8.3803Y-2.5748
X8.4663Y-3.2638
X8.4701Y-3.0709
X8.4803Y-2.5748
X8.5663Y-3.2638
X8.5701Y-3.0709
X8.5803Y-2.5748
X8.8913Y-2.9528
X8.9709Y-2.5512
X8.9709Y-2.6512
X8.9913Y-2.9528
X9.0709Y-2.5512
X9.0709Y-2.6512
X9.0913Y-2.9528
X9.1709Y-2.5512
X9.1709Y-2.6512
X9.1913Y-2.9528
X9.2913Y-2.9528
T6
X5.2815Y-2.7028
X5.6043Y-2.7028
T3
G00X4.7118Y-2.5157
M15
G01X4.7118Y-2.4882
M16
G05
G00X4.7118Y-2.6654
M15
G01X4.7118Y-2.6378
M16
G05
G00X5.052Y-2.5157
M15
G01X5.052Y-2.4882
M16
G05
G00X5.052Y-2.6654
M15
G01X5.052Y-2.6378
M16
G05
M30
