%TF.GenerationSoftware,KiCad,Pcbnew,7.0.10*%
%TF.CreationDate,2024-11-03T00:17:19-07:00*%
%TF.ProjectId,winston-pomodoro-timer,77696e73-746f-46e2-9d70-6f6d6f646f72,rev?*%
%TF.SameCoordinates,Original*%
%TF.FileFunction,Soldermask,Bot*%
%TF.FilePolarity,Negative*%
%FSLAX46Y46*%
G04 Gerber Fmt 4.6, Leading zero omitted, Abs format (unit mm)*
G04 Created by KiCad (PCBNEW 7.0.10) date 2024-11-03 00:17:19*
%MOMM*%
%LPD*%
G01*
G04 APERTURE LIST*
%ADD10R,1.700000X1.700000*%
%ADD11O,1.700000X1.700000*%
%ADD12O,2.200000X3.500000*%
%ADD13R,1.500000X2.500000*%
%ADD14O,1.500000X2.500000*%
%ADD15R,1.350000X1.350000*%
%ADD16O,1.350000X1.350000*%
%ADD17O,1.204000X2.204000*%
G04 APERTURE END LIST*
D10*
%TO.C,J1*%
X225840000Y-75000000D03*
D11*
X228380000Y-75000000D03*
X230920000Y-75000000D03*
X233460000Y-75000000D03*
X236000000Y-75000000D03*
%TD*%
D12*
%TO.C,SW2*%
X134150000Y-68650000D03*
X142350000Y-68650000D03*
D13*
X136250000Y-68650000D03*
D14*
X138250000Y-68650000D03*
X140250000Y-68650000D03*
%TD*%
D15*
%TO.C,J3*%
X130900000Y-81450000D03*
D16*
X130900000Y-79450000D03*
%TD*%
D10*
%TO.C,ICSP1*%
X227860000Y-67340000D03*
D11*
X227860000Y-64800000D03*
X230400000Y-67340000D03*
X230400000Y-64800000D03*
X232940000Y-67340000D03*
X232940000Y-64800000D03*
%TD*%
D10*
%TO.C,J5*%
X204980000Y-78000000D03*
D11*
X207520000Y-78000000D03*
X210060000Y-78000000D03*
X212600000Y-78000000D03*
X215140000Y-78000000D03*
X217680000Y-78000000D03*
%TD*%
D10*
%TO.C,J2*%
X207425000Y-82900000D03*
D11*
X209965000Y-82900000D03*
X212505000Y-82900000D03*
X215045000Y-82900000D03*
X217585000Y-82900000D03*
%TD*%
D10*
%TO.C,FTDI-Header1*%
X217940000Y-65400000D03*
D11*
X215400000Y-65400000D03*
X212860000Y-65400000D03*
X210320000Y-65400000D03*
X207780000Y-65400000D03*
X205240000Y-65400000D03*
%TD*%
D10*
%TO.C,J4*%
X191200000Y-65500000D03*
D11*
X188660000Y-65500000D03*
X186120000Y-65500000D03*
X183580000Y-65500000D03*
%TD*%
D17*
%TO.C,J6*%
X128320000Y-67350000D03*
X119680000Y-67350000D03*
X128320000Y-63550000D03*
X119680000Y-63550000D03*
%TD*%
M02*
